<?xml version="1.0" standalone="no"?>
<!DOCTYPE svg PUBLIC "-//W3C//DTD SVG 20010904//EN"
 "http://www.w3.org/TR/2001/REC-SVG-20010904/DTD/svg10.dtd">
<svg version="1.0" xmlns="http://www.w3.org/2000/svg"
 width="394.000000pt" height="394.000000pt" viewBox="0 0 394.000000 394.000000"
 preserveAspectRatio="xMidYMid meet">
<metadata>
Created by potrace 1.14, written by Peter Selinger 2001-2017
</metadata>
<g transform="translate(0.000000,394.000000) scale(0.100000,-0.100000)"
fill="#000000" stroke="none">
<path d="M0 3926 c0 -8 6 -16 13 -19 8 -3 13 3 13 14 0 11 -6 19 -13 19 -7 0
-13 -6 -13 -14z"/>
<path d="M136 3930 c12 -4 24 -15 27 -24 9 -22 26 -20 23 2 -2 9 -8 17 -14 17
-6 0 -14 3 -18 8 -4 4 -14 7 -23 6 -11 0 -9 -3 5 -9z"/>
<path d="M200 3927 c0 -5 10 -7 23 -5 20 4 23 1 19 -19 -3 -14 -11 -23 -23
-23 -11 0 -19 -6 -19 -14 0 -21 -38 -27 -50 -8 -6 11 -9 12 -10 4 0 -8 -5 -10
-12 -6 -8 4 -10 3 -5 -2 5 -5 14 -9 20 -9 7 -1 11 -6 10 -13 -2 -6 6 -16 17
-22 16 -9 20 -8 20 6 0 10 -5 14 -16 10 -8 -3 -12 -2 -9 4 3 6 22 10 41 10 27
0 34 -4 34 -20 0 -13 -7 -20 -19 -20 -13 0 -18 -6 -17 -17 2 -10 9 -18 17 -18
8 0 15 -10 17 -22 2 -15 10 -23 22 -23 23 0 31 -12 20 -30 -13 -21 -40 -21
-40 0 0 27 -17 34 -36 15 -9 -9 -26 -15 -38 -13 -11 1 -28 -2 -36 -7 -11 -6
-10 -2 3 12 9 11 14 23 10 26 -12 12 -21 7 -26 -14 -5 -19 -10 -20 -61 -15
-52 6 -56 5 -56 -14 0 -11 6 -20 14 -20 9 0 15 -14 18 -40 3 -33 0 -40 -14
-40 -12 0 -18 -8 -18 -21 0 -18 5 -21 33 -17 37 4 37 3 40 -112 l1 -54 -37 0
c-27 0 -36 -4 -34 -15 3 -22 30 -49 42 -42 6 2 4 -3 -3 -12 -8 -9 -11 -21 -7
-27 4 -7 -2 -14 -14 -17 -15 -4 -21 -13 -21 -34 0 -29 13 -38 26 -18 3 6 15 9
25 6 15 -4 19 0 19 18 0 14 7 25 20 28 26 7 26 27 0 27 -11 0 -20 7 -20 15 0
7 -8 19 -17 25 -17 11 -17 11 -1 6 10 -3 20 -1 23 5 7 10 28 -7 38 -31 3 -9 6
-10 6 -3 1 7 8 10 16 7 8 -4 15 -1 15 5 0 6 9 11 20 11 11 0 20 4 20 9 0 10
-26 9 -36 -2 -4 -4 -16 -7 -26 -7 -25 0 -24 36 2 43 13 3 20 0 20 -8 0 -11 20
-13 40 -4 7 3 23 7 38 8 6 0 12 10 12 21 0 13 7 20 20 20 11 0 20 7 20 15 0 8
5 15 11 15 5 0 7 6 3 13 -4 6 4 2 17 -11 23 -22 23 -24 5 -37 -10 -8 -23 -12
-27 -9 -5 3 -9 -4 -9 -15 0 -27 30 -28 37 -1 3 11 11 20 19 20 7 0 16 5 20 12
5 7 3 8 -7 3 -12 -8 -12 -6 0 8 7 9 20 17 28 17 8 0 11 5 7 12 -4 7 -3 8 4 4
7 -4 12 -18 12 -32 0 -17 -5 -24 -19 -24 -13 0 -19 -6 -18 -19 0 -11 4 -19 7
-19 27 2 30 -6 30 -82 l0 -80 33 -1 c76 -3 118 -7 123 -11 8 -8 8 -183 0 -196
-4 -7 -12 -10 -17 -7 -5 4 -12 -1 -15 -9 -3 -9 -12 -16 -18 -16 -18 0 -16 -28
2 -35 10 -3 12 0 8 10 -7 20 29 40 41 23 11 -19 12 -38 2 -39 -5 -1 -13 -2
-18 -3 -5 0 -13 -5 -18 -10 -5 -6 -2 -6 7 -1 13 8 13 7 1 -8 -23 -29 -56 -20
-53 14 1 3 -5 6 -13 6 -8 0 -12 -4 -9 -8 2 -4 0 -10 -6 -14 -6 -4 -7 -12 -3
-18 5 -8 2 -8 -9 0 -8 7 -18 10 -21 6 -12 -11 -19 27 -8 41 6 7 7 17 3 22 -4
4 0 3 9 -4 12 -9 16 -9 16 3 0 7 -3 14 -6 13 -22 -2 -31 5 -31 22 0 11 7 20
16 20 8 0 12 5 9 10 -3 6 -1 10 4 10 6 0 11 4 11 10 0 5 -18 9 -40 8 -25 -1
-37 -5 -33 -12 4 -6 0 -5 -9 2 -30 24 -135 23 -128 -2 5 -15 -9 -46 -20 -46
-6 0 -8 6 -5 13 4 6 0 4 -8 -5 -18 -22 -43 -23 -51 -3 -4 11 3 19 19 25 30 11
34 39 6 37 -11 0 -17 -5 -14 -10 8 -13 -17 -36 -33 -30 -8 3 -14 14 -14 24 0
12 -7 19 -20 19 -13 0 -20 7 -20 20 0 13 -7 20 -19 20 -13 0 -18 -6 -17 -17 2
-10 7 -18 12 -18 18 0 34 -17 27 -28 -4 -7 1 -6 10 2 15 12 17 12 11 -3 -3 -9
-1 -16 5 -16 6 0 11 -9 11 -20 0 -11 5 -20 11 -20 6 0 9 7 5 15 -10 26 3 16
18 -14 9 -16 12 -32 8 -36 -4 -5 -1 -5 6 -1 7 4 10 12 7 17 -4 5 -1 9 4 9 6 0
11 -5 11 -11 0 -6 10 -25 22 -42 12 -17 15 -27 7 -22 -7 5 -24 8 -35 7 -14 -2
-23 3 -26 16 -8 28 -36 24 -33 -5 2 -19 -1 -23 -14 -17 -21 9 -73 13 -89 7
-17 -7 -15 -61 4 -81 15 -14 15 -17 0 -27 -17 -13 -21 -99 -4 -89 7 5 9 -5 11
-68 0 -13 -4 -22 -10 -21 -6 1 -10 -5 -9 -14 2 -10 14 -18 32 -20 28 -4 60
-23 38 -23 -5 0 -9 -27 -8 -62 2 -84 2 -82 19 -68 8 7 15 8 15 2 0 -9 42 -12
185 -13 123 -1 111 -8 113 72 1 39 4 75 8 80 3 6 25 9 48 8 23 -2 47 0 53 4 5
3 13 3 17 -1 4 -4 11 -7 14 -8 20 -2 41 -17 36 -25 -3 -5 -6 -36 -6 -69 -1
-48 -4 -60 -17 -60 -10 0 -12 -3 -5 -8 6 -4 14 -14 17 -22 4 -10 6 -8 6 7 1
21 5 23 41 19 22 -2 40 0 40 5 0 6 10 4 22 -2 17 -9 23 -9 26 0 3 9 7 9 18 0
10 -8 14 -34 14 -88 l0 -76 78 0 77 0 2 98 c2 90 1 97 -17 97 -13 0 -20 -7
-20 -20 0 -11 5 -20 12 -20 6 0 8 -3 5 -6 -4 -4 -13 -1 -22 6 -8 7 -15 9 -15
5 0 -4 -7 -2 -15 5 -8 7 -15 9 -15 4 0 -5 -8 0 -17 11 -15 20 -15 20 -11 -1 4
-17 1 -20 -18 -16 -15 3 -24 11 -24 23 0 13 -5 17 -17 13 -15 -5 -15 -4 -4 4
8 6 16 21 18 34 5 37 12 50 24 43 6 -4 13 2 16 14 6 24 43 29 43 6 0 -8 5 -15
10 -15 6 0 13 0 18 0 4 0 7 6 7 13 0 18 41 21 49 2 4 -11 -2 -19 -19 -25 -14
-5 -25 -16 -25 -24 0 -8 -6 -17 -12 -19 -7 -3 2 -3 20 0 25 4 32 2 32 -11 0
-9 7 -16 15 -16 8 0 15 7 15 15 0 8 -7 15 -15 15 -21 0 -19 39 3 48 22 9 29
37 7 28 -9 -3 -18 0 -21 9 -3 7 -13 11 -22 8 -15 -4 -15 -3 -2 6 21 15 22 129
0 130 -8 0 -44 2 -80 5 l-66 4 4 -35 c3 -23 -1 -39 -9 -45 -11 -7 -11 -11 -1
-15 15 -6 16 -49 1 -58 -6 -4 -36 -6 -67 -5 -31 1 -64 2 -72 2 -14 0 -16 9
-11 61 1 5 6 5 11 2 6 -3 10 -2 10 4 0 5 -5 11 -11 13 -7 2 -11 45 -12 113 -1
61 -6 113 -12 117 -6 5 -5 8 4 8 8 0 11 6 7 15 -4 10 2 19 17 25 19 8 20 9 3
9 -11 1 -16 4 -13 8 4 3 2 12 -3 18 -15 18 -1 45 24 46 11 0 16 3 9 5 -8 4 -7
10 5 22 18 19 32 12 45 -20 3 -10 12 -18 19 -17 10 0 10 2 1 6 -10 3 -10 8 1
19 21 20 53 17 59 -6 4 -16 0 -20 -19 -20 -15 0 -24 -6 -24 -15 0 -8 6 -15 14
-15 13 0 26 -20 26 -41 0 -5 -9 -9 -20 -9 -24 0 -27 -25 -4 -34 26 -10 54 -7
54 7 0 8 2 9 8 1 4 -6 27 -12 52 -13 50 -2 175 -8 203 -10 10 -1 17 -9 17 -22
0 -14 5 -19 17 -17 26 5 28 34 3 41 -19 5 -21 12 -19 76 l2 71 31 1 c17 1 45
1 61 1 29 -2 29 -1 11 13 -11 8 -15 15 -9 15 6 0 16 -7 23 -15 24 -29 40 -18
34 23 -3 20 -7 43 -9 50 -2 6 -1 12 4 12 4 0 7 10 5 23 -1 12 -3 27 -3 32 -1
6 -5 3 -10 -5 -6 -8 -7 -19 -4 -25 4 -5 2 -6 -3 -2 -5 5 -9 14 -9 20 0 13 -24
16 -171 20 -102 2 -111 1 -106 -15 3 -13 -1 -18 -16 -18 -27 0 -23 -23 8 -48
l25 -20 -26 -10 c-25 -10 -44 -37 -40 -55 1 -5 -3 -6 -9 -2 -6 3 -7 11 -4 17
5 7 1 9 -9 5 -10 -4 -17 -1 -17 5 0 8 -3 9 -11 1 -16 -16 -59 -3 -59 18 0 12
7 19 18 19 10 0 19 7 19 15 0 15 -24 28 -36 20 -5 -2 -6 7 -3 20 2 13 9 23 14
22 18 -4 17 33 -1 43 -16 8 -18 25 -17 157 l2 148 74 -2 c40 -2 74 -4 76 -6 1
-1 4 -36 5 -78 l3 -76 77 -1 77 -2 1 147 c1 81 4 149 6 152 3 2 66 0 141 -5
l136 -9 29 26 c29 26 39 55 17 46 -7 -2 -12 -9 -11 -15 2 -7 -4 -9 -14 -5 -10
4 -12 8 -6 10 7 3 9 11 6 19 -8 21 17 49 28 32 6 -9 9 -7 9 8 0 27 -10 36 -26
23 -9 -7 -12 -3 -10 21 1 17 -1 33 -6 36 -5 3 -6 10 -3 15 12 18 14 49 4 55
-6 4 -6 11 1 19 24 29 -1 35 -151 35 -140 0 -149 -1 -149 -19 0 -10 -6 -21
-14 -24 -17 -7 -36 11 -29 29 3 8 -3 12 -16 11 -21 -1 -26 -32 -6 -32 17 0 36
-16 30 -25 -3 -4 5 -10 16 -13 24 -6 22 -43 -2 -41 -9 1 -15 -8 -16 -20 -1
-12 1 -15 4 -8 4 10 9 8 19 -5 8 -11 13 -45 14 -90 l0 -72 -65 6 c-42 4 -69 2
-78 -5 -16 -14 -16 -13 -17 78 -1 130 -1 130 20 130 11 0 19 6 18 12 -2 7 7
14 20 16 17 3 22 -1 22 -17 0 -14 -6 -21 -19 -21 -14 0 -18 -5 -14 -18 2 -10
11 -19 19 -19 11 0 11 3 1 16 -9 12 -9 13 1 7 6 -4 12 -3 12 3 0 5 9 13 20 16
24 8 27 25 4 25 -9 0 -18 9 -21 21 -4 16 -8 17 -14 7 -7 -10 -9 -9 -9 3 0 9
-7 20 -16 23 -8 3 -12 10 -9 16 4 7 -55 10 -172 10 l-178 0 1 -57 c1 -66 7
-71 97 -72 31 -1 57 -4 58 -8 1 -5 2 -20 3 -35 0 -14 4 -30 8 -33 4 -4 4 -15
-1 -24 -4 -9 -9 -59 -10 -111 -2 -52 -4 -97 -6 -99 -11 -10 -124 1 -147 15 -7
5 -8 3 -3 -6 5 -9 2 -11 -11 -6 -11 3 -47 6 -82 7 -35 1 -65 5 -67 9 -5 8 -8
151 -4 170 3 9 -5 16 -18 18 -16 2 -23 -2 -23 -12 0 -9 -8 -16 -20 -16 -13 0
-20 7 -20 20 0 13 7 20 18 20 10 0 19 7 19 15 0 9 -9 15 -21 15 -15 0 -17 -3
-8 -9 11 -7 10 -10 -3 -15 -30 -11 -45 -6 -45 14 0 14 7 20 23 21 19 1 19 2 3
6 -15 4 -16 7 -5 14 10 6 11 9 1 9 -7 0 -15 -7 -18 -15 -9 -23 -44 -19 -44 5
0 14 7 20 21 20 16 0 20 5 16 19 -3 13 0 18 12 16 9 -2 19 -4 24 -4 4 -1 7 -7
7 -15 0 -8 5 -18 12 -22 7 -5 8 -3 3 7 -5 8 1 6 13 -5 12 -10 20 -23 19 -30
-1 -6 5 -11 13 -11 8 0 15 7 15 15 0 8 -7 15 -15 15 -8 0 -17 11 -18 24 -3 20
0 23 20 19 22 -4 23 -2 20 54 -3 47 -7 58 -21 58 -13 0 -18 -8 -19 -31 0 -17
-6 -36 -12 -44 -8 -9 -8 -15 0 -18 6 -3 5 -4 -2 -2 -7 1 -12 8 -10 14 2 9 -26
16 -50 12 -5 0 -8 8 -8 20 0 13 -4 18 -12 13 -10 -6 -10 -4 0 7 21 23 14 30
-28 27 -22 -1 -40 -6 -40 -11z m723 -32 c4 -8 2 -17 -4 -21 -15 -9 -39 3 -39
21 0 19 36 20 43 0z m197 -15 c0 -11 6 -20 14 -20 15 0 28 -24 19 -34 -15 -14
-43 -5 -43 14 0 11 -7 20 -15 20 -8 0 -15 9 -15 20 0 13 7 20 20 20 13 0 20
-7 20 -20z m152 -13 c-2 -9 1 -17 5 -16 22 4 33 -3 33 -21 0 -13 -7 -20 -20
-20 -11 0 -20 6 -20 14 0 8 -9 18 -20 21 -29 9 -27 47 3 43 15 -2 21 -9 19
-21z m-665 -32 c0 -8 -4 -12 -9 -9 -5 3 -6 10 -3 15 9 13 12 11 12 -6z m578
-15 c-3 -5 -12 -10 -18 -10 -7 0 -6 4 3 10 19 12 23 12 15 0z m-354 -60 c9 0
20 -7 23 -16 4 -9 2 -13 -5 -8 -7 4 -10 1 -7 -7 3 -8 11 -13 17 -11 7 1 10 -2
6 -8 -3 -6 -12 -7 -18 -3 -9 5 -9 3 0 -8 11 -13 5 -15 -45 -14 -31 1 -57 5
-57 11 0 5 3 8 8 7 4 -2 7 10 7 25 0 35 9 45 35 38 11 -3 27 -6 36 -6z m-604
-63 c0 -7 -9 -14 -20 -14 -19 -2 -19 -2 -1 12 11 8 19 15 20 15 0 0 1 -6 1
-13z m-77 -47 c3 -1 8 -2 13 -1 4 1 2 -8 -5 -19 -17 -27 -45 -25 -50 3 -4 19
-1 23 16 21 12 -1 23 -3 26 -4z m206 -21 c4 -7 7 -25 6 -41 0 -18 3 -26 10
-22 6 4 8 2 5 -4 -4 -5 -15 -9 -25 -7 -9 2 -29 4 -44 4 -26 1 -28 4 -28 41 0
39 1 40 34 40 19 0 38 -5 42 -11z m-159 -31 c15 -26 10 -34 -18 -30 -20 3 -29
10 -29 23 0 22 34 26 47 7z m609 0 c4 -6 0 -16 -9 -23 -9 -7 -14 -14 -11 -17
3 -4 -1 -9 -8 -14 -7 -4 -10 -4 -6 1 4 4 1 20 -8 36 -14 28 -14 29 10 29 14 0
28 -5 32 -12z m34 -43 c0 -18 -5 -25 -20 -25 -25 0 -27 37 -2 43 9 3 18 5 20
6 1 0 2 -10 2 -24z m-519 -30 c5 4 6 -1 3 -9 -3 -9 -2 -16 4 -16 5 0 12 6 15
14 3 9 15 12 31 9 19 -4 26 -11 26 -29 0 -26 -1 -27 -24 -18 -9 3 -16 15 -16
25 0 18 -1 18 -20 -1 -20 -20 -55 -27 -64 -12 -3 5 2 18 12 30 9 12 19 17 20
12 2 -6 8 -8 13 -5z m-46 -66 c0 -34 -29 -31 -33 3 -3 21 1 26 15 24 12 -2 18
-11 18 -27z m89 -10 c-3 -5 -14 -9 -25 -9 -21 0 -27 35 -6 43 14 5 39 -22 31
-34z m-310 -87 c3 -5 -1 -9 -9 -9 -8 0 -12 4 -9 9 3 4 7 8 9 8 2 0 6 -4 9 -8z
m638 -69 c-8 -13 -6 -21 6 -30 16 -12 16 -13 -1 -7 -13 5 -16 2 -11 -10 5 -13
-1 -16 -33 -16 -21 0 -46 -6 -53 -12 -12 -11 -13 -11 -4 0 7 8 8 28 4 51 l-7
38 54 2 c50 2 54 0 45 -16z m-48 -143 c10 0 16 -3 13 -7 -4 -3 2 -13 13 -20
11 -8 18 -19 15 -24 -4 -5 0 -9 7 -9 9 -1 7 -5 -4 -14 -14 -10 -15 -16 -5 -27
7 -7 3 -6 -9 4 -11 9 -24 14 -28 10 -4 -5 -7 -3 -6 2 7 32 -1 45 -27 45 -16 0
-23 4 -17 8 6 4 10 17 9 30 -1 16 2 19 9 12 5 -5 19 -10 30 -10z m323 -32 c3
-10 11 -18 18 -18 16 0 25 -34 14 -51 -6 -10 -9 -11 -9 -1 0 6 -7 12 -15 12
-8 0 -15 7 -15 15 0 13 -11 19 -31 17 -3 -1 -5 12 -5 27 0 23 3 27 19 23 11
-3 22 -13 24 -24z m188 10 c3 -3 7 -21 8 -41 3 -35 3 -35 -40 -39 l-43 -3 0
45 0 45 35 -1 c20 -1 38 -3 40 -6z m-390 -118 c3 -6 -1 -7 -9 -4 -18 7 -21 14
-7 14 6 0 13 -4 16 -10z m-447 -22 c-2 -16 -10 -22 -30 -23 -18 -1 -25 2 -20
9 4 6 7 14 8 19 1 4 2 9 3 12 0 3 10 5 22 5 15 0 20 -5 17 -22z m44 -43 c-4
-31 -6 -34 -20 -23 -8 7 -17 12 -19 11 -1 -2 -3 -1 -3 2 0 3 0 11 0 19 0 8 10
17 23 19 12 2 22 5 22 6 1 0 -1 -15 -3 -34z m-132 16 c0 -5 3 -17 7 -27 4 -12
3 -15 -5 -10 -7 4 -12 2 -12 -4 0 -7 -6 -5 -15 4 -21 21 -19 46 5 46 11 0 20
-4 20 -9z m168 -104 c2 -18 8 -25 15 -21 8 5 8 3 0 -7 -9 -9 -13 -52 -13 -137
l0 -123 -82 1 c-118 2 -120 2 -112 -12 6 -10 4 -10 -7 0 -7 7 -38 12 -71 12
-39 0 -58 4 -59 13 0 6 -1 34 0 60 0 42 -3 48 -17 43 -15 -5 -15 -5 1 8 19 15
22 33 7 38 -6 2 29 2 77 1 56 -2 90 -7 94 -15 5 -7 8 25 7 72 0 47 0 89 1 93
0 4 36 6 79 4 75 -4 77 -4 80 -30z m95 -39 c4 -14 11 -19 21 -15 10 4 16 1 16
-9 0 -9 5 -13 13 -9 6 4 3 -1 -7 -9 -27 -21 -58 -21 -54 1 2 11 -6 19 -22 23
-25 6 -34 29 -17 41 16 11 45 -2 50 -23z m-5 -150 c3 -14 11 -18 24 -14 11 2
17 2 14 -1 -3 -4 2 -16 11 -27 10 -12 14 -18 9 -14 -5 4 -15 3 -23 -4 -10 -8
-20 -8 -39 2 -18 10 -21 16 -12 22 9 5 6 8 -8 8 -23 0 -40 36 -20 43 24 8 39
3 44 -15z m-280 -143 c4 -5 1 -5 -5 -1 -7 4 -13 2 -13 -3 0 -6 5 -11 11 -11 8
0 8 -5 -1 -15 -7 -8 -10 -22 -6 -30 4 -12 -4 -15 -39 -15 -41 0 -45 2 -45 25
0 14 -6 25 -12 26 -10 0 -10 2 0 6 6 2 12 10 12 16 0 14 86 15 98 2z m442 -15
c0 -10 5 -22 12 -26 7 -5 8 -3 3 7 -8 12 -6 12 8 0 23 -19 22 -46 -3 -48 -14
-1 -20 4 -20 18 0 12 -7 19 -20 19 -14 0 -20 7 -20 23 0 16 6 23 20 24 13 1
20 -4 20 -17z m230 -4 c0 -3 -4 -8 -10 -11 -5 -3 -10 -1 -10 4 0 6 5 11 10 11
6 0 10 -2 10 -4z m0 -80 c0 -3 -4 -8 -10 -11 -5 -3 -10 -1 -10 4 0 6 5 11 10
11 6 0 10 -2 10 -4z m-30 -98 c0 -38 0 -38 -41 -38 -29 0 -38 -3 -33 -12 4 -7
3 -9 -2 -5 -8 7 -7 74 2 88 2 3 19 6 39 6 34 0 35 -1 35 -39z"/>
<path d="M280 2812 c0 -37 15 -49 37 -30 11 8 14 8 10 1 -5 -8 -1 -11 12 -10
16 1 18 4 8 16 -9 12 -9 13 1 7 8 -5 11 -1 9 16 -3 17 -12 24 -32 26 -25 3
-27 2 -16 -11 9 -12 9 -17 0 -23 -7 -4 -9 -3 -6 3 4 6 0 16 -8 23 -13 11 -15
8 -15 -18z"/>
<path d="M308 2682 c-23 -3 -28 -8 -28 -32 0 -36 19 -49 37 -25 12 17 13 17
13 2 0 -33 26 -17 28 17 3 37 -7 44 -50 38z"/>
<path d="M460 3930 c12 -8 12 -10 1 -10 -11 0 -11 -3 0 -17 10 -11 10 -14 2
-9 -8 4 -13 2 -13 -8 0 -8 8 -14 18 -14 9 0 25 -3 35 -7 14 -6 17 -2 17 28 0
36 -12 47 -53 47 -18 0 -19 -2 -7 -10z"/>
<path d="M1491 3856 c-2 -141 -4 -165 -13 -160 -4 3 -5 11 -2 17 4 7 1 6 -7
-1 -12 -12 -11 -16 8 -29 23 -15 21 -43 -3 -43 -24 0 -16 -30 9 -32 12 -1 29
-2 37 -4 8 -1 24 -2 35 -3 16 -1 20 -9 22 -35 1 -19 9 -45 17 -59 21 -31 11
-57 -20 -57 -19 0 -26 7 -30 30 -4 17 -13 30 -21 30 -8 0 -12 -4 -8 -9 3 -5 1
-12 -5 -16 -6 -4 -8 -11 -4 -16 3 -5 10 -6 16 -3 6 4 8 2 4 -4 -4 -7 -37 -9
-96 -5 -64 3 -90 2 -90 -7 0 -6 5 -8 13 -4 9 6 9 5 0 -8 -7 -8 -10 -17 -7 -21
3 -3 -3 -3 -15 0 -15 4 -21 1 -21 -11 0 -14 18 -21 43 -17 4 1 2 -8 -5 -19 -7
-11 -18 -20 -25 -20 -7 0 -13 -9 -13 -20 0 -11 7 -20 15 -20 8 0 19 -9 25 -20
6 -11 16 -20 23 -20 8 0 7 4 -2 9 -12 8 -9 11 13 17 36 9 58 -17 23 -28 -12
-3 -15 -7 -7 -7 13 -1 13 -3 0 -11 -12 -7 -11 -12 5 -32 11 -13 25 -26 30 -31
6 -4 -1 -6 -15 -3 -20 3 -26 0 -26 -14 0 -10 4 -16 8 -14 4 3 8 0 8 -7 0 -7 6
-5 13 6 19 26 37 11 35 -31 -1 -19 -4 -31 -7 -27 -3 4 -14 9 -23 11 -12 2 -16
-3 -13 -18 5 -27 -3 -26 -15 3 -8 21 -9 20 -7 -5 1 -16 5 -28 10 -28 4 0 5 -5
1 -12 -5 -8 0 -9 14 -6 20 6 22 3 19 -35 -2 -23 2 -62 10 -86 7 -24 13 -50 13
-56 0 -16 -48 -26 -57 -12 -3 6 -1 7 5 3 18 -11 14 10 -4 24 -8 8 -14 9 -13 4
4 -25 -3 -42 -18 -40 -15 1 -18 -10 -21 -71 l-3 -73 -74 0 c-68 0 -75 2 -75
20 0 14 -7 20 -22 20 -12 0 -18 -3 -15 -7 4 -3 2 -12 -4 -19 -8 -9 -5 -11 9
-7 11 2 22 0 26 -5 3 -5 6 -75 7 -155 l0 -144 75 -2 74 -2 0 75 c0 59 3 76 14
76 8 0 17 6 19 13 4 10 6 10 6 0 1 -9 19 -13 57 -13 54 0 55 1 54 28 -4 52 0
135 6 130 3 -3 6 -21 6 -39 0 -38 22 -79 41 -79 8 0 7 4 -3 11 -12 9 -12 10 3
5 10 -3 23 -6 29 -6 6 0 7 -7 4 -16 -3 -8 -2 -13 3 -9 5 3 9 -17 8 -45 -1 -27
-6 -50 -10 -50 -5 0 -5 -4 -2 -10 3 -5 2 -10 -3 -10 -5 0 -15 -14 -22 -31 -7
-17 -24 -47 -37 -66 -13 -20 -22 -42 -19 -50 4 -9 2 -11 -6 -7 -8 5 -9 2 -5
-9 3 -9 3 -16 -1 -16 -19 3 -45 -2 -39 -7 7 -8 -33 -41 -54 -46 -8 -2 -20 -11
-28 -22 -11 -14 -15 -15 -22 -5 -5 9 -9 10 -9 2 0 -6 -13 -10 -30 -9 -16 1
-30 -2 -30 -7 0 -5 -15 -7 -34 -5 -19 2 -32 0 -30 -4 3 -4 -5 -8 -18 -8 -18 0
-20 2 -8 10 22 14 -3 12 -39 -3 -17 -7 -28 -17 -24 -21 4 -4 -1 -4 -11 0 -12
5 -23 2 -30 -7 -6 -8 -24 -15 -41 -16 -51 -4 -76 -13 -69 -25 4 -7 3 -8 -5 -4
-6 4 -26 3 -44 -3 -17 -5 -59 -15 -91 -21 -44 -9 -55 -15 -45 -22 11 -8 10 -9
-4 -4 -19 6 -102 -23 -92 -32 3 -3 15 -7 27 -9 23 -4 73 -53 54 -53 -3 0 -12
8 -22 17 -21 22 -131 26 -126 6 1 -7 -5 -13 -13 -13 -9 0 -12 -6 -9 -15 4 -8
-1 -17 -10 -21 -11 -4 -14 -13 -11 -25 4 -13 1 -19 -9 -19 -10 0 -13 -6 -9
-17 6 -16 4 -16 -9 -5 -14 11 -16 11 -12 -6 3 -10 -2 -24 -10 -31 -9 -8 -16
-19 -16 -27 0 -7 -5 -25 -12 -41 -6 -15 -10 -34 -9 -40 1 -7 -2 -13 -6 -13 -4
0 -8 -10 -9 -22 -3 -85 -9 -126 -15 -123 -11 7 -18 -20 -12 -44 3 -12 0 -28
-7 -36 -7 -8 -8 -15 -3 -15 5 0 9 -18 10 -40 2 -36 0 -40 -23 -40 -20 0 -24
-5 -24 -30 0 -38 27 -107 57 -143 13 -16 23 -34 23 -40 0 -8 -3 -9 -8 -1 -4 6
-15 13 -25 17 -17 6 -18 1 -17 -71 2 -76 -1 -112 -20 -282 -5 -47 -10 -111
-10 -142 0 -32 -4 -58 -9 -58 -10 0 -9 -26 2 -36 4 -4 1 -14 -6 -22 -10 -13
-9 -14 2 -7 11 6 13 1 9 -24 -2 -17 0 -31 5 -31 5 0 7 -6 4 -14 -10 -24 10
-305 22 -320 8 -10 9 -16 1 -21 -6 -3 -7 -12 -3 -18 12 -20 12 -77 -1 -70 -6
4 -5 -1 3 -10 8 -10 11 -27 7 -44 -5 -21 -4 -24 4 -13 6 10 10 11 10 3 0 -10
280 -13 1364 -13 l1364 0 -1 59 c0 33 -4 58 -8 55 -4 -2 -5 11 -2 29 3 19 0
44 -7 57 -8 15 -8 20 -1 16 16 -10 14 6 -5 32 -8 12 -20 19 -26 16 -7 -5 -8
-2 -3 6 4 7 2 16 -6 21 -11 7 -11 9 3 9 9 0 22 -8 27 -18 6 -9 11 -12 11 -7 0
6 -5 16 -12 23 -7 7 -9 12 -5 12 4 0 -2 9 -13 20 -16 16 -18 24 -8 51 13 38 5
241 -11 283 -6 15 -18 72 -26 125 -9 53 -18 103 -22 111 -3 8 -8 35 -10 60 -3
25 -8 46 -13 48 -5 2 -6 10 -3 18 3 8 0 14 -7 14 -10 0 -10 3 -1 14 8 10 9 16
1 21 -5 3 -10 29 -10 56 0 28 -4 48 -8 45 -7 -4 -11 12 -13 57 0 9 -5 17 -10
17 -6 0 -7 -5 -4 -10 3 -6 1 -10 -4 -10 -6 0 -11 16 -11 35 0 19 -5 35 -11 35
-6 0 -8 9 -3 22 11 36 5 124 -12 175 -22 66 -29 70 -27 15 0 -27 -1 -34 -4
-18 -3 22 -7 26 -13 15 -6 -9 -8 -5 -6 15 2 16 -3 41 -10 54 -7 14 -11 29 -8
34 3 5 0 16 -7 24 -10 12 -14 12 -20 2 -6 -9 -9 -9 -9 -1 0 6 5 15 10 18 6 3
10 11 10 16 0 6 -3 8 -8 5 -4 -2 -12 7 -19 20 -8 18 -8 22 0 17 7 -4 6 1 -2
10 -7 9 -17 15 -20 12 -4 -2 -8 2 -8 10 0 8 3 12 7 10 4 -2 -4 17 -17 42 -12
26 -23 52 -23 59 0 7 -4 16 -10 19 -6 3 -7 -1 -4 -9 4 -9 1 -16 -6 -16 -8 0
-11 9 -8 25 6 30 -7 42 -27 25 -10 -8 -15 -8 -20 0 -4 6 -13 9 -20 6 -16 -6
-74 29 -81 49 -4 8 -13 15 -21 15 -8 0 -12 4 -9 9 4 5 -7 15 -23 22 -16 7 -27
17 -24 23 3 5 1 6 -6 2 -6 -4 -18 0 -27 8 -9 9 -20 14 -25 10 -6 -3 -17 0 -26
8 -9 7 -14 9 -11 3 3 -5 -4 -10 -16 -10 -13 0 -23 5 -23 12 0 6 7 9 16 6 9 -2
-2 5 -24 17 -22 11 -45 18 -53 15 -7 -2 -16 3 -19 13 -6 14 -8 13 -14 -8 -6
-22 -7 -23 -8 -4 -1 23 -26 38 -43 27 -7 -3 -8 -1 -4 5 4 7 2 12 -3 12 -6 0
-11 -4 -11 -9 0 -13 -28 -7 -43 9 -10 12 -9 12 5 2 9 -8 19 -9 22 -4 3 6 -1
13 -10 16 -23 9 -31 8 -47 -9 -13 -13 -16 -13 -21 0 -3 8 -1 15 5 15 5 0 1 9
-10 21 -20 22 -46 17 -37 -7 8 -22 -2 -17 -15 7 -8 17 -8 20 1 14 9 -5 10 -2
6 13 -5 15 -1 21 16 26 47 15 88 17 88 5 0 -7 3 -9 7 -6 3 4 12 2 20 -4 7 -6
13 -9 13 -5 0 4 17 -2 38 -13 20 -10 57 -22 82 -26 25 -5 39 -10 32 -12 -6 -3
-12 -20 -12 -39 l0 -34 69 0 c49 0 72 -4 81 -15 7 -8 18 -15 24 -15 6 0 5 4
-3 9 -11 7 -11 9 0 14 8 3 4 6 -9 6 -22 1 -23 4 -21 92 1 100 -10 129 -30 74
-7 -19 -17 -35 -23 -35 -5 0 -7 -7 -4 -16 4 -9 2 -13 -5 -8 -7 4 -10 1 -7 -7
3 -8 12 -14 20 -13 7 1 19 -10 25 -22 6 -13 7 -22 3 -19 -5 3 -11 1 -15 -5
-11 -18 -35 -11 -35 10 0 14 -7 20 -22 20 l-21 0 22 24 c14 15 20 30 16 37 -5
7 -4 10 2 6 12 -7 38 37 48 81 3 17 11 32 16 32 6 0 8 4 5 9 -6 8 9 18 28 19
14 1 24 23 21 48 -1 14 3 24 10 24 17 0 21 15 20 66 -1 42 -1 42 53 45 15 1
35 5 45 10 9 6 17 7 17 5 0 -3 -12 -12 -27 -20 -28 -14 -28 -15 -23 -94 6 -92
3 -112 -14 -112 -7 0 -13 -7 -13 -14 0 -8 5 -14 11 -13 6 1 12 -8 14 -20 2
-16 -2 -23 -12 -23 -18 0 -21 -16 -5 -26 6 -3 46 -7 88 -8 75 -1 77 0 73 22
-4 18 0 22 19 22 19 0 21 2 10 9 -12 8 -9 11 12 16 28 7 35 19 17 30 -6 3 -13
0 -16 -8 -3 -8 -14 -17 -25 -20 -15 -4 -19 0 -19 19 0 15 6 24 16 24 10 0 14
5 10 16 -3 8 -2 12 4 9 6 -3 10 -2 10 4 0 6 7 8 15 5 8 -4 15 -12 15 -20 0 -8
7 -14 15 -14 8 0 15 6 15 14 0 7 9 16 20 19 11 3 20 1 20 -5 0 -5 6 -6 13 -2
10 6 10 4 0 -7 -15 -15 -18 -33 -5 -25 5 3 9 -2 9 -10 0 -10 -4 -11 -11 -4
-16 16 -36 12 -36 -7 0 -14 2 -15 9 -5 7 11 10 10 15 -3 10 -28 7 -45 -9 -45
-8 0 -15 -7 -15 -15 0 -8 9 -15 21 -15 13 0 18 -4 13 -12 -5 -8 -2 -9 11 -4
16 6 16 4 4 -11 -11 -13 -11 -15 -1 -9 9 5 15 1 19 -13 3 -12 13 -21 22 -21
13 0 14 2 2 9 -12 8 -9 11 12 16 17 5 27 14 27 26 0 12 7 19 21 19 18 0 20 5
18 65 -1 36 0 68 3 71 3 3 66 5 138 6 112 0 134 -2 142 -16 11 -20 28 -21 28
-1 0 9 9 15 21 15 17 0 20 -5 17 -24 -4 -21 -3 -23 14 -13 20 13 25 32 6 21
-10 -5 -10 -4 -2 5 6 7 20 13 30 13 17 2 19 11 21 66 0 35 3 65 5 68 3 2 29 5
59 5 30 1 60 6 67 12 9 7 11 6 6 -8 -5 -13 -4 -16 4 -11 8 5 10 2 6 -8 -4 -11
0 -16 10 -16 9 0 16 6 16 14 0 18 17 24 63 20 l37 -4 -1 90 c-1 83 -3 89 -23
92 -11 2 -20 8 -19 14 1 6 -5 11 -13 11 -7 0 -14 -4 -14 -8 0 -11 42 -34 54
-31 5 2 4 -4 -4 -12 -18 -22 -47 -20 -53 4 -3 11 -11 20 -17 20 -9 0 -9 -4 1
-17 10 -11 10 -14 2 -9 -7 4 -13 3 -13 -3 0 -5 -7 -8 -17 -7 -20 3 -37 43 -21
52 7 4 8 3 4 -4 -4 -7 -1 -12 8 -12 24 0 30 21 7 27 -28 7 -28 43 -1 43 11 0
20 -6 20 -13 0 -8 7 -14 15 -14 8 0 15 6 15 14 0 7 7 13 15 13 17 0 20 25 5
35 -6 3 -15 -6 -20 -21 l-11 -28 -29 33 c-26 28 -30 41 -32 96 l-2 63 -68 0
-69 0 2 -104 c1 -57 6 -104 11 -104 5 0 6 -6 1 -12 -4 -7 -8 -56 -8 -108 l0
-95 -67 -3 -68 -3 -1 66 c-2 88 -3 102 -9 109 -3 2 -5 30 -4 60 l2 56 -66 -3
-67 -2 0 -62 c0 -34 -2 -64 -5 -67 -3 -2 -33 -6 -66 -7 l-61 -2 -2 -71 c-1
-39 -4 -72 -6 -75 -3 -2 -33 -3 -67 -1 -35 1 -92 4 -128 5 -36 1 -68 3 -72 4
-5 0 -8 33 -8 71 l0 70 -50 0 c-49 0 -49 0 -60 41 -6 22 -16 52 -22 65 -10 22
-13 23 -29 8 -10 -9 -23 -13 -28 -9 -15 9 -14 -8 2 -24 10 -10 9 -11 -5 -6
-11 4 -18 2 -18 -4 0 -6 -4 -11 -10 -11 -10 0 14 75 30 95 5 7 8 14 5 17 -3 3
1 24 9 47 9 23 16 45 18 49 1 4 9 6 18 4 9 -2 11 0 5 5 -13 10 -13 23 -1 42 7
11 6 12 -5 6 -11 -7 -12 -6 -3 6 6 8 10 23 7 34 -6 32 -13 77 -19 132 -6 47
-4 56 20 84 28 33 85 82 73 63 -3 -6 0 -11 7 -11 8 0 12 6 9 14 -3 7 -8 13
-12 13 -4 0 -8 7 -8 15 0 8 3 15 6 15 3 0 18 11 34 24 34 29 38 76 7 76 -14 0
-20 6 -18 16 2 10 -5 18 -14 19 -10 2 -18 -1 -18 -7 0 -6 -6 -8 -14 -5 -9 4
-17 -1 -19 -11 -3 -12 -5 -11 -6 5 0 12 -5 24 -11 28 -11 7 -2 35 12 35 5 0 6
-9 3 -20 -8 -26 3 -25 26 1 17 19 26 21 117 17 l98 -4 0 91 c-1 82 -3 91 -18
87 -10 -2 -18 -12 -18 -22 0 -13 -6 -17 -20 -13 -11 3 -20 12 -20 19 0 8 -4
14 -10 14 -5 0 -10 -7 -10 -15 0 -9 -9 -15 -25 -15 -19 0 -23 4 -18 18 4 9 14
23 22 30 14 12 14 13 -2 8 -10 -3 -15 -2 -12 3 3 5 1 12 -4 16 -14 8 -2 35 16
35 10 0 14 7 10 19 -3 15 -1 18 12 14 9 -2 4 4 -11 13 -20 13 -28 27 -28 47
l0 28 163 -6 c89 -4 173 -8 187 -10 14 -1 32 -3 40 -4 12 -1 15 -20 17 -98 4
-134 2 -131 77 -135 l62 -3 -2 40 c-1 22 -3 42 -4 45 -1 3 -1 16 0 30 1 14 3
45 4 70 1 43 2 45 31 44 17 -1 153 -5 303 -9 l272 -7 0 31 0 31 -742 -1 c-409
0 -738 -3 -731 -5 12 -5 4 -53 -9 -54 -56 -1 -58 0 -58 30 0 19 -5 30 -14 30
-25 0 -26 -32 -13 -267 1 -32 13 -29 26 7 11 34 53 44 46 12 -2 -11 3 -19 12
-19 8 0 13 7 10 16 -3 14 9 16 90 16 l93 0 0 -56 c0 -51 -2 -57 -23 -61 -16
-3 -23 0 -23 13 0 11 6 15 16 11 12 -5 11 -2 -3 12 -9 10 -15 21 -13 24 2 4
-9 8 -25 9 -15 1 -31 -2 -34 -8 -4 -5 -1 -8 6 -7 6 2 14 -3 17 -11 3 -8 0 -11
-7 -7 -6 4 -11 1 -11 -6 1 -17 25 -49 34 -43 3 3 3 1 -1 -4 -18 -21 -90 -10
-76 12 4 7 0 8 -11 4 -10 -4 -20 -7 -22 -7 -3 0 -3 -4 0 -8 3 -5 -1 -9 -9 -9
-8 0 -17 9 -21 19 -3 11 -11 17 -17 15 -7 -3 -13 6 -13 19 -2 29 16 32 23 4 7
-25 14 -25 35 -1 16 19 15 19 -10 18 -17 -1 -27 3 -27 13 0 8 -9 16 -20 18
-16 3 -17 1 -5 -7 13 -9 13 -11 -2 -11 -10 0 -18 -5 -18 -10 0 -6 -12 -3 -26
7 -16 10 -42 16 -67 14 l-41 -2 23 20 c13 12 20 21 15 21 -6 0 -16 -6 -23 -12
-11 -11 -11 -9 -2 10 12 23 9 26 -21 23 -10 -1 -18 3 -18 9 0 7 -6 10 -14 7
-8 -3 -17 -1 -20 6 -4 7 -4 0 -2 -15 3 -23 -1 -28 -17 -28 -11 0 -17 3 -14 7
10 9 -31 35 -43 28 -6 -4 -8 -10 -6 -14 3 -4 -1 -8 -9 -8 -11 0 -12 4 -4 13 7
9 6 15 -6 21 -13 7 -16 28 -16 102 l0 92 -104 -2 c-93 -1 -105 -4 -110 -20 -4
-11 -10 -19 -14 -19 -13 0 -32 26 -25 33 4 3 -3 5 -14 4 -14 -1 -22 -10 -24
-29 -3 -15 -2 -28 1 -28 3 0 6 -33 5 -73 l-1 -74 105 -2 c110 -1 142 -12 121
-38 -10 -11 -14 -11 -20 -2 -4 7 -15 14 -24 15 -9 1 -14 0 -11 -3 3 -4 -3 -12
-14 -20 -11 -8 -20 -20 -20 -27 0 -8 -7 -19 -15 -26 -13 -10 -15 -9 -15 9 0
12 -4 20 -9 17 -5 -4 -7 3 -4 14 7 28 -31 27 -51 -2 -18 -26 -46 -33 -46 -11
0 19 -46 63 -57 54 -4 -3 -1 3 7 13 13 17 13 19 0 14 -21 -7 -25 -38 -6 -38
14 0 14 -3 4 -20 -8 -13 -16 -16 -22 -10 -6 6 -14 10 -20 10 -5 0 -1 -7 10
-15 17 -12 20 -12 31 1 8 11 13 12 18 4 6 -9 10 -9 17 1 8 11 9 11 5 -1 -2 -8
-10 -15 -18 -15 -8 0 -20 -4 -27 -8 -7 -5 -24 0 -40 11 -15 11 -33 17 -39 15
-8 -3 -12 4 -11 20 2 18 7 23 20 19 10 -2 18 1 18 6 0 14 -35 34 -43 25 -4 -3
-5 4 -2 15 4 20 7 118 6 159 -1 20 -6 22 -75 21 l-74 -1 -1 -81z m1259 36 c0
-25 -3 -28 -35 -28 -32 0 -35 3 -35 28 0 25 3 28 35 28 32 0 35 -3 35 -28z
m535 -2 c11 -5 14 -9 8 -9 -7 -1 -13 -8 -13 -17 0 -8 -4 -12 -10 -9 -5 3 -10
1 -10 -4 0 -6 -7 -11 -15 -11 -10 0 -15 10 -15 30 0 32 15 37 55 20z m-1715
-44 c0 -7 9 -16 20 -19 12 -3 20 -14 20 -25 0 -27 -36 -18 -44 11 -4 16 -8 18
-18 9 -11 -9 -14 -6 -16 14 -1 18 3 24 18 24 11 0 20 -6 20 -14z m266 1 c8 3
20 0 28 -6 7 -6 17 -7 22 -3 4 4 2 -1 -5 -10 -12 -16 -11 -18 7 -18 15 0 19
-5 15 -20 -6 -22 -43 -28 -43 -6 0 7 -9 16 -21 19 -12 3 -18 10 -15 16 4 5 2
12 -4 16 -5 3 -10 12 -9 18 0 9 2 9 5 0 3 -7 12 -9 20 -6z m637 -41 c3 -8 4
-22 2 -32 -2 -11 -4 -22 -4 -25 -1 -4 -18 -9 -38 -10 l-38 -4 4 42 c3 41 4 43
36 43 19 0 35 -6 38 -14z m282 -41 c0 -27 -3 -30 -37 -33 -32 -3 -38 0 -39 17
-1 12 -2 27 -3 34 -3 19 13 25 47 18 27 -6 32 -11 32 -36z m-368 3 c-3 -8 -6
-5 -6 6 -1 11 2 17 5 13 3 -3 4 -12 1 -19z m883 -4 c0 -9 6 -14 13 -11 8 3 14
-5 15 -22 2 -32 -28 -40 -36 -9 -2 10 -11 18 -18 18 -8 0 -14 9 -14 20 0 13 7
20 20 20 12 0 20 -7 20 -16z m-1664 -102 c-1 -26 -5 -46 -9 -44 -4 1 -13 2
-19 2 -9 0 -8 4 2 10 15 10 13 11 -30 13 -17 2 -25 8 -24 20 1 9 2 25 3 35 1
14 8 17 40 14 l40 -4 -3 -46z m97 -26 c4 -10 1 -13 -9 -9 -15 6 -19 23 -5 23
5 0 11 -7 14 -14z m-31 -20 c7 4 8 2 4 -4 -11 -18 -26 -14 -25 6 0 10 3 12 6
4 2 -6 10 -9 15 -6z m673 -6 c-3 -5 -12 -7 -20 -3 -21 7 -19 13 6 13 11 0 18
-4 14 -10z m-707 -24 c-2 -19 -5 -22 -15 -14 -9 7 -13 7 -13 -1 0 -19 -16 -12
-17 8 -1 14 3 17 19 13 14 -3 19 -1 14 6 -4 7 -2 12 3 12 6 0 10 -11 9 -24z
m42 -48 c0 -6 -6 -6 -14 1 -12 10 -13 8 -9 -11 4 -18 3 -20 -7 -12 -7 7 -9 21
-5 34 5 17 10 19 21 9 8 -6 14 -16 14 -21z m1547 -743 c0 -8 -4 -12 -9 -9 -5
3 -6 10 -3 15 9 13 12 11 12 -6z m90 9 c-3 -3 -12 -4 -19 -1 -8 3 -5 6 6 6 11
1 17 -2 13 -5z m-663 -30 c3 -8 2 -12 -4 -9 -6 3 -10 10 -10 16 0 14 7 11 14
-7z m661 -25 c0 -36 -2 -38 -37 -41 -34 -3 -38 -1 -38 20 0 13 -4 20 -10 17
-5 -3 -10 1 -10 10 0 9 4 14 9 11 5 -3 11 0 14 7 2 6 20 12 38 12 33 1 34 -1
34 -36z m275 -8 c0 -36 -1 -37 -35 -33 -34 4 -41 14 -35 52 3 21 17 28 46 22
20 -4 24 -10 24 -41z m-2157 -101 c3 -13 10 -18 21 -14 12 5 15 2 9 -12 -5
-13 -3 -15 8 -9 12 8 12 6 0 -8 -17 -21 -51 -22 -51 -2 0 9 -11 20 -25 25 -14
5 -25 12 -25 15 0 4 5 3 10 0 6 -3 10 1 10 9 0 23 37 19 43 -4z m1737 -30 c0
-39 -1 -40 -34 -40 -31 0 -34 3 -38 35 -4 32 -2 34 27 38 16 2 33 5 38 5 4 1
7 -16 7 -38z m-1882 -118 c13 -13 28 -20 34 -16 6 4 8 3 4 -4 -3 -5 -3 -12 1
-15 5 -2 2 -2 -4 -1 -7 2 -13 -2 -13 -9 0 -7 -9 -13 -20 -13 -13 0 -20 7 -20
20 0 19 0 19 -22 0 -13 -10 -18 -13 -12 -5 14 16 6 53 -10 44 -6 -4 -5 0 2 9
17 21 32 18 60 -10z m1997 -4 c-2 -31 -45 -39 -45 -9 0 12 8 21 23 24 12 2 22
5 23 6 0 0 0 -9 -1 -21z m-561 -3 c3 -8 12 -15 21 -15 22 0 18 -37 -5 -43 -14
-4 -20 0 -20 13 0 10 -8 20 -18 22 -10 3 -19 13 -19 22 0 20 33 21 41 1z m139
-5 c3 -11 11 -19 18 -18 7 2 15 -5 17 -14 3 -14 -3 -18 -22 -18 -18 0 -24 4
-20 15 4 10 0 13 -13 11 -14 -3 -19 2 -19 20 0 30 31 33 39 4z m280 -1 c3 -12
10 -18 16 -14 7 4 11 -4 11 -20 0 -23 -2 -24 -20 -15 -11 6 -20 15 -20 20 0 6
-7 10 -15 10 -8 0 -15 9 -15 20 0 27 36 27 43 -1z m174 5 c-3 -3 -12 -4 -19
-1 -8 3 -5 6 6 6 11 1 17 -2 13 -5z m-2092 -13 c3 -5 2 -12 -3 -15 -5 -3 -9 1
-9 9 0 17 3 19 12 6z m2102 -18 c0 -6 -4 -10 -9 -7 -4 3 -8 -1 -8 -9 0 -7 -7
-14 -15 -14 -8 0 -15 4 -15 9 0 5 -4 7 -9 3 -5 -3 -13 0 -17 6 -4 7 -3 9 3 6
6 -4 16 0 23 7 14 18 47 17 47 -1z m-567 -132 c0 -29 -5 -40 -18 -43 -24 -7
-65 9 -57 22 3 6 0 13 -9 16 -25 9 14 42 52 43 31 1 32 -1 32 -38z m244 24 c7
-20 -23 -33 -34 -14 -5 7 -6 17 -4 21 9 13 32 9 38 -7z m36 -40 c0 -18 -5 -25
-20 -25 -25 0 -27 37 -2 43 9 3 18 5 20 6 1 0 2 -10 2 -24z m-30 -64 c-1 -17
-20 -33 -33 -28 -23 9 -10 46 14 40 10 -3 19 -8 19 -12z m-270 -381 c0 -5 -2
-10 -4 -10 -3 0 -8 5 -11 10 -3 6 -1 10 4 10 6 0 11 -4 11 -10z m1 -47 c-12
-20 -14 -14 -5 12 4 9 9 14 11 11 3 -2 0 -13 -6 -23z m253 -609 c3 -8 2 -12
-4 -9 -6 3 -10 10 -10 16 0 14 7 11 14 -7z"/>
<path d="M74 3919 c-7 -12 15 -31 28 -23 4 3 8 12 8 20 0 17 -26 19 -36 3z"/>
<path d="M120 3880 c0 -5 7 -7 15 -4 8 4 15 8 15 10 0 2 -7 4 -15 4 -8 0 -15
-4 -15 -10z"/>
<path d="M1392 3839 c2 -29 7 -34 31 -37 25 -3 27 -1 27 32 0 30 -4 36 -21 36
-13 0 -18 -4 -13 -12 5 -8 1 -8 -10 1 -16 14 -17 12 -14 -20z"/>
<path d="M70 3844 c0 -9 4 -12 10 -9 6 3 7 -1 4 -9 -4 -10 -1 -16 9 -16 21 0
28 13 17 30 -12 19 -40 21 -40 4z"/>
<path d="M2857 3848 c-6 -20 4 -48 17 -48 6 0 13 15 14 32 3 31 2 32 -13 13
-12 -16 -14 -17 -9 -2 3 9 4 17 1 17 -3 0 -7 -6 -10 -12z"/>
<path d="M3560 3823 c0 -15 -2 -16 -10 -3 -8 13 -10 12 -10 -2 0 -10 5 -18 11
-18 6 0 4 -7 -5 -15 -8 -8 -19 -15 -24 -15 -5 0 -9 -6 -9 -13 0 -8 6 -14 13
-14 7 0 11 4 8 9 -4 5 3 12 15 15 16 4 21 13 21 39 0 19 -2 34 -5 34 -3 0 -5
-8 -5 -17z"/>
<path d="M3472 3800 c2 -21 7 -30 18 -28 13 3 16 13 11 48 0 6 -8 10 -16 10
-11 0 -15 -9 -13 -30z"/>
<path d="M3607 3816 c-5 -14 11 -46 23 -46 6 0 10 13 10 28 0 28 -25 41 -33
18z"/>
<path d="M3693 3822 c-15 -10 -13 -49 3 -49 6 0 11 13 10 29 0 15 -1 28 -1 28
0 0 -5 -4 -12 -8z"/>
<path d="M3810 3810 c0 -11 6 -20 13 -20 9 0 9 -2 -1 -9 -11 -7 -11 -9 1 -14
16 -6 30 34 18 50 -12 16 -31 12 -31 -7z"/>
<path d="M3749 3818 c-1 -2 -3 -13 -4 -26 -2 -17 2 -22 12 -18 8 3 17 6 19 6
2 0 4 9 4 20 0 11 -7 20 -15 20 -8 0 -16 -1 -16 -2z"/>
<path d="M3880 3789 c0 -15 -7 -35 -16 -43 -8 -9 -10 -16 -4 -16 6 0 13 7 16
15 4 8 12 15 20 15 9 0 14 11 14 28 0 19 -5 29 -15 29 -10 0 -15 -10 -15 -28z"/>
<path d="M116 3794 c-3 -8 7 -19 22 -27 15 -7 26 -18 25 -24 -1 -5 5 -10 13
-10 21 0 17 24 -6 30 -11 3 -20 9 -19 14 5 29 -25 44 -35 17z m31 -10 c-3 -3
-12 -4 -19 -1 -8 3 -5 6 6 6 11 1 17 -2 13 -5z"/>
<path d="M2834 3781 c4 -5 1 -12 -4 -14 -6 -3 -5 -4 2 -3 15 3 23 26 8 26 -6
0 -9 -4 -6 -9z"/>
<path d="M2898 3781 c11 -6 10 -10 -5 -16 -10 -5 -21 -7 -25 -7 -15 3 -8 -16
7 -22 9 -3 15 0 15 9 0 8 9 15 20 15 13 0 18 5 14 15 -4 8 -14 15 -23 15 -12
0 -13 -2 -3 -9z"/>
<path d="M460 3770 c11 -7 11 -10 2 -10 -7 0 -11 -4 -7 -9 3 -5 1 -12 -5 -16
-19 -12 1 -26 36 -23 25 1 34 7 34 19 0 36 -12 49 -44 49 -24 0 -27 -3 -16
-10z"/>
<path d="M70 3766 c0 -2 9 -6 20 -9 11 -3 20 -1 20 4 0 5 -9 9 -20 9 -11 0
-20 -2 -20 -4z"/>
<path d="M3387 3753 c5 -11 3 -14 -6 -8 -9 5 -12 2 -9 -11 5 -27 58 -30 58 -3
0 10 -6 19 -12 19 -9 0 -8 4 2 10 12 8 9 10 -12 10 -21 0 -26 -4 -21 -17z"/>
<path d="M3583 3757 c0 -8 6 -14 13 -14 7 0 10 6 7 14 -3 7 -8 13 -12 13 -4 0
-8 -6 -8 -13z"/>
<path d="M1422 3750 c2 -19 -4 -30 -15 -30 -8 0 -14 -7 -14 -15 0 -8 4 -15 9
-15 5 0 11 7 14 15 4 8 13 15 21 15 9 0 13 6 10 14 -3 8 -1 17 6 19 7 3 2 4
-10 4 -12 -1 -21 -4 -21 -7z"/>
<path d="M3650 3750 c0 -5 5 -10 10 -10 6 0 10 5 10 10 0 6 -4 10 -10 10 -5 0
-10 -4 -10 -10z"/>
<path d="M3710 3747 c0 -8 6 -14 13 -14 8 0 14 6 14 14 0 7 -6 13 -14 13 -7 0
-13 -6 -13 -13z"/>
<path d="M3783 3747 c0 -8 6 -14 12 -14 6 0 12 6 12 14 0 7 -6 13 -12 13 -6 0
-12 -6 -12 -13z"/>
<path d="M3920 3745 c0 -8 4 -15 8 -15 5 0 9 7 9 15 0 8 -4 15 -9 15 -4 0 -8
-7 -8 -15z"/>
<path d="M3476 3719 c3 -5 12 -9 21 -9 19 0 9 13 -12 16 -8 1 -13 -2 -9 -7z"/>
<path d="M3544 3718 c-4 -6 -3 -8 4 -4 5 3 13 0 15 -6 3 -8 6 -6 6 5 1 19 -14
23 -25 5z"/>
<path d="M3610 3715 c0 -8 -7 -15 -16 -15 -11 0 -15 -6 -11 -20 3 -11 1 -18
-3 -15 -5 3 -11 1 -15 -5 -9 -15 -25 -2 -25 21 0 10 -7 19 -15 19 -8 0 -15 -6
-15 -14 0 -7 -8 -16 -19 -19 -16 -4 -18 -13 -16 -66 2 -34 5 -64 7 -66 2 -3
31 -6 64 -7 55 -3 59 -1 58 18 -1 16 3 20 17 17 13 -4 19 0 19 11 0 9 -7 16
-15 16 -8 0 -15 8 -15 18 0 10 -4 23 -10 30 -7 9 -7 9 2 2 18 -15 38 -12 38 5
0 8 -6 15 -14 15 -23 0 -29 31 -6 37 23 6 27 33 5 33 -8 0 -15 -7 -15 -15z
m-67 -102 c4 -7 14 -13 21 -13 8 0 16 -9 19 -20 4 -15 0 -20 -14 -20 -20 0
-59 33 -59 51 0 5 -4 7 -10 4 -5 -3 -7 0 -4 9 6 17 34 10 47 -11z"/>
<path d="M3689 3722 c11 -8 11 -10 0 -15 -10 -4 -8 -6 4 -6 21 -1 18 21 -4 27
-12 3 -12 2 0 -6z"/>
<path d="M3745 3721 c-3 -6 -5 -11 -3 -12 27 -6 38 -5 35 4 -5 15 -24 20 -32
8z"/>
<path d="M3826 3721 c-4 -7 -5 -15 -2 -18 9 -9 19 4 14 18 -4 11 -6 11 -12 0z"/>
<path d="M3877 3699 c-3 -12 -10 -18 -16 -14 -6 3 -11 -1 -11 -9 0 -9 -9 -16
-20 -16 -11 0 -20 7 -20 15 0 23 -27 18 -34 -7 l-6 -23 -23 28 c-22 26 -37 27
-37 1 0 -6 8 -11 17 -10 12 0 19 -7 21 -21 3 -18 -2 -23 -18 -23 -12 0 -18 -5
-15 -10 3 -6 -4 -14 -17 -19 -13 -6 -18 -10 -13 -11 6 0 -1 -9 -14 -19 -13
-10 -21 -23 -17 -30 10 -16 26 -13 20 4 -4 9 2 18 14 22 12 5 21 13 21 18 0 6
9 11 21 13 25 4 27 -23 3 -37 -10 -6 -13 -11 -8 -11 6 0 3 -5 -5 -10 -10 -7
12 -10 73 -10 80 0 87 2 87 20 0 11 5 20 10 20 6 0 10 5 10 11 0 6 -9 9 -20 6
-11 -3 -18 -1 -15 3 3 5 1 11 -5 15 -6 3 -10 -4 -10 -18 0 -18 -6 -26 -23 -29
-36 -7 -47 1 -47 37 0 48 37 56 83 17 15 -13 17 -13 17 0 0 9 7 18 15 22 8 3
15 12 15 21 0 8 -7 15 -15 15 -19 0 -20 29 0 36 8 4 12 10 9 15 -9 15 -21 10
-27 -12z"/>
<path d="M1688 3693 c7 -3 16 -2 19 1 4 3 -2 6 -13 5 -11 0 -14 -3 -6 -6z"/>
<path d="M3660 3690 c10 -6 11 -10 3 -10 -7 0 -13 -5 -13 -12 0 -6 3 -8 7 -5
9 9 34 -13 27 -24 -3 -5 2 -9 10 -9 9 0 16 5 16 10 0 6 -5 10 -10 10 -6 0 -15
11 -20 25 -5 14 -15 25 -22 25 -9 0 -8 -3 2 -10z"/>
<path d="M3920 3675 c0 -8 5 -15 10 -15 6 0 10 7 10 15 0 8 -4 15 -10 15 -5 0
-10 -7 -10 -15z"/>
<path d="M1420 3667 c0 -9 -7 -17 -15 -17 -8 0 -15 -5 -15 -11 0 -5 6 -7 13
-3 8 5 8 2 -2 -9 -11 -15 -11 -17 2 -17 14 0 33 57 22 68 -3 3 -5 -2 -5 -11z"/>
<path d="M2478 3653 c7 -3 16 -2 19 1 4 3 -2 6 -13 5 -11 0 -14 -3 -6 -6z"/>
<path d="M443 3609 c-1 -11 3 -17 9 -13 7 4 7 0 -1 -13 -13 -26 -6 -33 36 -33
31 0 33 2 33 34 0 19 -4 38 -10 41 -5 3 -10 1 -10 -5 0 -6 -5 -8 -12 -3 -25
15 -44 12 -45 -8z"/>
<path d="M3650 3611 c0 -6 5 -13 12 -17 6 -4 8 -3 4 4 -3 5 0 13 6 15 8 3 6 6
-4 6 -10 1 -18 -3 -18 -8z"/>
<path d="M3925 3611 c-3 -5 -1 -12 5 -16 5 -3 10 1 10 9 0 18 -6 21 -15 7z"/>
<path d="M2470 3600 c0 -5 5 -10 10 -10 6 0 10 5 10 10 0 6 -4 10 -10 10 -5 0
-10 -4 -10 -10z"/>
<path d="M1080 3563 c0 -34 2 -37 40 -46 23 -6 26 -3 28 25 3 32 -10 48 -38
48 -13 0 -13 -1 0 -10 8 -5 10 -10 5 -10 -6 0 -16 5 -23 12 -9 9 -12 5 -12
-19z"/>
<path d="M3920 3535 c0 -8 5 -15 10 -15 6 0 10 7 10 15 0 8 -4 15 -10 15 -5 0
-10 -7 -10 -15z"/>
<path d="M3200 3493 c1 -21 2 -53 1 -72 l-1 -34 -195 7 c-157 6 -195 4 -195
-6 0 -10 -2 -10 -9 1 -18 28 -9 -45 10 -79 l19 -35 -21 25 c-18 22 -21 22 -17
5 5 -33 23 -44 79 -47 l54 -3 3 -72 3 -73 -71 0 c-63 0 -70 -2 -70 -20 0 -13
-7 -20 -20 -20 -13 0 -18 -5 -14 -15 4 -11 10 -12 18 -6 9 7 12 1 14 -21 2
-18 0 -29 -4 -25 -11 10 -34 -13 -28 -27 6 -16 -43 -10 -53 7 -3 6 -1 7 5 3 7
-4 12 -3 12 2 0 6 -6 12 -14 15 -9 4 -16 -5 -20 -25 -3 -17 -5 -33 -3 -34 2
-2 21 -6 42 -9 36 -4 37 -3 19 11 -18 15 -18 15 2 5 16 -8 21 -18 19 -40 -3
-42 -12 -51 -51 -51 -33 0 -34 2 -35 38 l-1 37 -8 -33 c-4 -18 -5 -43 -2 -54
4 -18 11 -20 68 -16 34 2 61 1 59 -2 -6 -9 28 -6 44 5 8 5 12 4 8 -1 -3 -5 44
-10 109 -12 l114 -3 -1 67 c-1 55 2 70 17 81 12 9 20 10 22 3 2 -5 23 -10 47
-10 l44 0 3 72 3 73 68 -1 c67 -2 69 -1 64 21 -3 18 0 22 15 20 11 -2 18 2 18
11 0 8 -7 14 -15 14 -8 0 -15 9 -15 20 0 11 7 20 15 20 8 0 15 9 15 19 0 14 5
18 20 14 11 -3 20 -12 20 -19 0 -8 7 -14 15 -14 8 0 14 6 12 12 -1 7 8 14 21
16 14 2 22 10 22 23 0 10 7 19 15 19 8 0 15 5 15 10 0 6 -7 13 -15 16 -19 8
-20 44 -2 44 20 0 16 28 -5 33 -12 3 -16 1 -11 -6 5 -9 3 -9 -8 -1 -8 6 -39
10 -69 10 -49 -1 -55 -3 -54 -22 0 -17 -4 -20 -20 -16 -20 5 -20 5 -3 -12 21
-21 22 -56 2 -56 -8 0 -15 -6 -15 -14 0 -7 -9 -16 -20 -19 -12 -3 -20 0 -20 8
0 7 -6 15 -13 18 -8 3 -14 -1 -14 -9 0 -7 5 -10 10 -7 6 3 7 1 4 -4 -12 -18
-55 -3 -59 22 -3 15 0 22 10 21 8 0 17 6 19 14 4 12 3 12 -5 2 -7 -11 -10 -10
-16 3 -12 32 -7 55 11 48 12 -5 15 -2 10 10 -9 23 37 27 58 5 7 -7 6 -9 -1 -5
-7 4 -14 -2 -17 -14 -3 -12 -10 -18 -16 -14 -7 3 -8 0 -5 -9 9 -22 21 -20 27
5 3 12 10 18 16 14 7 -3 11 2 11 14 0 14 6 21 20 21 19 0 20 6 18 60 -1 33 -7
60 -13 60 -5 0 -3 5 5 10 10 7 -7 10 -58 10 l-74 0 2 -37z m-26 -130 c-7 -2
-9 -19 -7 -44 l5 -40 -36 3 c-34 2 -36 4 -36 39 0 21 5 39 10 41 15 4 77 6 64
1z m26 -189 l0 -73 -61 4 c-34 2 -63 6 -65 8 -3 2 -6 34 -8 71 l-2 66 68 -1
68 -2 0 -73z m-304 -105 c2 -4 1 -21 -2 -39 -6 -28 -10 -31 -38 -28 -28 3 -31
7 -34 41 -3 38 -3 38 33 35 20 -1 38 -5 41 -9z m274 -34 c0 -33 -2 -35 -35
-35 -33 0 -35 2 -35 35 0 33 2 35 35 35 33 0 35 -2 35 -35z m-285 -104 c6 -1
11 -16 11 -35 0 -30 -4 -35 -28 -38 -33 -5 -43 0 -50 28 -8 30 7 51 34 48 13
-1 28 -3 33 -3z m115 -16 c0 -8 7 -15 15 -15 9 0 15 -9 15 -24 0 -19 -4 -23
-19 -19 -12 3 -17 11 -14 19 3 8 2 14 -3 13 -23 -4 -34 3 -34 21 0 13 7 20 20
20 11 0 20 -7 20 -15z"/>
<path d="M3880 3501 c0 -6 5 -13 12 -17 6 -4 8 -3 4 4 -3 5 0 13 6 15 8 3 6 6
-4 6 -10 1 -18 -3 -18 -8z"/>
<path d="M3113 3493 c-7 -2 -13 -18 -13 -34 0 -26 4 -29 30 -29 26 0 30 3 30
29 0 17 -6 31 -16 35 -9 3 -16 6 -17 5 -1 0 -8 -3 -14 -6z"/>
<path d="M3533 3483 c-7 -2 -13 -18 -13 -34 0 -26 3 -29 33 -29 17 0 28 4 22
8 -5 4 -10 18 -10 31 0 25 -11 33 -32 24z"/>
<path d="M3926 3471 c-4 -7 -5 -15 -2 -18 9 -9 19 4 14 18 -4 11 -6 11 -12 0z"/>
<path d="M1193 3451 c0 -11 4 -18 8 -16 3 3 14 -2 24 -9 22 -16 10 -40 -16
-33 -15 4 -19 0 -19 -18 0 -18 4 -22 20 -18 11 3 17 9 15 14 -9 14 30 30 43
17 13 -13 4 -38 -13 -38 -8 0 -17 -5 -21 -12 -5 -7 -3 -8 7 -3 11 7 11 5 -1
-9 -13 -17 -12 -18 5 -15 11 3 20 10 20 17 0 8 9 20 20 28 l20 15 -20 15 c-11
9 -18 21 -17 27 2 7 0 9 -4 5 -11 -11 -34 12 -34 33 0 12 -7 19 -19 19 -13 0
-19 -6 -18 -19z"/>
<path d="M1273 3447 c0 -8 6 -14 14 -14 15 0 12 19 -3 24 -6 2 -11 -3 -11 -10z"/>
<path d="M1085 3432 c-8 -9 -5 -72 3 -72 17 0 21 14 9 29 -11 14 -10 14 5 2
10 -7 16 -16 14 -20 -3 -4 4 -7 14 -8 14 -1 18 6 18 32 0 29 -4 34 -29 37 -16
3 -31 2 -34 0z"/>
<path d="M3895 3430 c3 -5 11 -10 16 -10 6 0 7 5 4 10 -3 6 -11 10 -16 10 -6
0 -7 -4 -4 -10z"/>
<path d="M3927 3403 c-4 -3 -7 -11 -7 -17 0 -6 5 -5 12 2 6 6 9 14 7 17 -3 3
-9 2 -12 -2z"/>
<path d="M3550 3363 c0 -7 6 -13 13 -13 8 0 14 6 14 13 0 8 -6 14 -14 14 -7 0
-13 -6 -13 -14z"/>
<path d="M3751 3310 l0 -70 65 0 c57 0 64 2 64 19 0 11 5 23 12 27 7 5 8 3 3
-6 -5 -8 -4 -11 3 -6 6 3 13 2 17 -4 3 -5 12 -10 18 -10 7 0 4 5 -6 11 -9 6
-15 14 -12 20 4 5 -1 9 -9 9 -8 0 -20 9 -26 20 -9 17 -8 20 14 20 17 0 24 5
22 18 -2 9 -11 17 -22 17 -10 -1 -18 -7 -16 -14 1 -7 -2 -10 -8 -6 -6 3 -8 10
-5 14 2 5 -22 9 -55 10 l-59 2 0 -71z"/>
<path d="M3520 3329 c0 -5 5 -7 10 -4 6 3 10 8 10 11 0 2 -4 4 -10 4 -5 0 -10
-5 -10 -11z"/>
<path d="M3580 3336 c0 -2 7 -7 16 -10 8 -3 12 -2 9 4 -6 10 -25 14 -25 6z"/>
<path d="M3653 3313 c3 -21 10 -29 28 -31 22 -3 25 1 25 28 0 26 -3 30 -28 30
-25 0 -28 -3 -25 -27z"/>
<path d="M195 3311 c-7 -22 -31 -35 -40 -21 -4 6 -12 10 -18 10 -7 0 -4 -5 6
-11 24 -14 21 -28 -8 -39 -32 -12 -33 -40 -2 -40 22 1 22 1 2 17 -13 10 -14
14 -4 10 9 -3 21 3 28 15 11 17 15 18 22 7 7 -11 9 -8 9 9 0 17 6 22 25 22 17
0 25 6 25 17 0 9 -3 13 -7 10 -3 -4 -12 -2 -19 4 -9 7 -14 5 -19 -10z"/>
<path d="M284 3307 c1 -7 6 -18 10 -26 7 -10 6 -12 -4 -6 -8 5 -11 3 -8 -6 7
-21 78 -25 78 -5 0 9 -6 16 -12 16 -10 0 -9 3 1 9 21 14 5 28 -33 29 -22 1
-33 -3 -32 -11z"/>
<path d="M3553 3293 c0 -9 4 -10 14 -2 7 6 13 12 13 14 0 1 -6 2 -13 2 -8 0
-14 -6 -14 -14z"/>
<path d="M2676 3275 c-3 -8 -1 -15 3 -15 5 0 11 7 15 15 3 8 1 15 -3 15 -5 0
-11 -7 -15 -15z"/>
<path d="M1080 3245 c0 -33 1 -35 33 -32 29 2 33 6 35 32 2 29 0 31 -33 33
-34 3 -35 1 -35 -33z m40 21 c0 -2 -7 -7 -16 -10 -8 -3 -12 -2 -9 4 6 10 25
14 25 6z"/>
<path d="M3525 3267 c-4 -10 -5 -21 -1 -24 10 -10 18 4 13 24 -4 17 -4 17 -12
0z"/>
<path d="M3580 3260 c0 -13 7 -20 20 -20 22 0 18 25 -6 34 -9 3 -14 -1 -14
-14z"/>
<path d="M196 3234 c-8 -22 -9 -21 19 -26 19 -4 25 -1 25 13 0 10 -5 21 -12
25 -7 5 -9 2 -6 -8 4 -8 1 -15 -7 -15 -7 0 -11 6 -8 14 3 7 3 13 0 13 -3 0 -8
-7 -11 -16z"/>
<path d="M3909 3237 c-16 -12 -15 -37 2 -37 6 0 8 4 4 9 -3 5 2 17 11 25 18
19 6 21 -17 3z"/>
<path d="M1345 3221 c-7 -12 12 -24 25 -16 6 3 10 12 9 18 0 9 -2 9 -6 0 -2
-7 -9 -13 -14 -13 -6 0 -7 5 -4 10 3 6 4 10 1 10 -3 0 -7 -4 -11 -9z"/>
<path d="M3380 3197 c0 -10 8 -17 18 -17 9 0 13 4 7 8 -5 4 -13 11 -17 16 -5
5 -8 2 -8 -7z"/>
<path d="M3450 3189 c0 -5 4 -8 9 -5 5 4 12 0 14 -6 3 -8 6 -6 6 5 1 9 -6 17
-14 17 -8 0 -15 -5 -15 -11z"/>
<path d="M3520 3171 c0 -28 3 -31 31 -31 27 0 30 3 27 28 -2 21 -9 28 -30 30
-25 3 -28 0 -28 -27z"/>
<path d="M823 3161 c9 -12 9 -13 0 -7 -7 4 -13 2 -13 -3 0 -6 7 -11 15 -11 8
0 15 8 15 18 0 10 -7 19 -15 19 -12 0 -12 -3 -2 -16z"/>
<path d="M30 3156 c0 -22 36 -26 37 -5 1 13 -5 19 -18 19 -10 0 -19 -6 -19
-14z"/>
<path d="M3894 3148 c-4 -6 -3 -8 3 -5 6 4 13 0 17 -8 3 -8 11 -15 18 -14 10
0 10 2 1 6 -7 2 -13 11 -13 19 0 17 -16 19 -26 2z"/>
<path d="M3403 3131 c-3 -11 -18 -24 -34 -30 -27 -9 -42 -34 -18 -28 26 5 84
77 63 77 -3 0 -8 -9 -11 -19z"/>
<path d="M779 3131 c11 -7 11 -9 0 -14 -10 -4 -9 -6 4 -6 9 -1 17 6 17 14 0 8
-8 15 -17 15 -14 0 -15 -2 -4 -9z"/>
<path d="M3450 3131 c0 -6 6 -11 13 -11 8 0 7 -4 -3 -10 -13 -8 -12 -10 3 -10
12 0 17 6 15 17 -3 18 -28 31 -28 14z"/>
<path d="M1240 3086 c0 -32 2 -35 30 -34 32 1 32 1 35 39 2 22 -2 25 -32 27
-31 3 -33 1 -33 -32z"/>
<path d="M2670 3120 c-8 -26 -7 -41 2 -32 6 6 8 16 5 24 -3 7 -6 11 -7 8z"/>
<path d="M2723 3105 c-3 -9 -3 -18 0 -21 9 -9 27 6 27 22 0 19 -19 18 -27 -1z"/>
<path d="M811 3088 c-1 -10 6 -18 14 -18 8 0 15 8 15 18 0 13 -2 14 -9 3 -7
-11 -9 -11 -14 0 -4 10 -6 9 -6 -3z"/>
<path d="M3410 3086 c0 -9 7 -16 16 -16 17 0 14 22 -4 28 -7 2 -12 -3 -12 -12z"/>
<path d="M2690 3063 c0 -9 3 -14 6 -10 3 3 17 -6 30 -21 19 -23 23 -24 24 -9
0 10 -5 15 -10 12 -6 -3 -14 5 -20 19 -11 29 -30 35 -30 9z"/>
<path d="M770 3044 c0 -14 3 -14 15 -4 8 7 15 14 15 16 0 2 -7 4 -15 4 -8 0
-15 -7 -15 -16z"/>
<path d="M3380 3045 c0 -8 5 -15 11 -15 5 0 8 4 5 9 -4 5 0 12 6 14 8 3 6 6
-4 6 -10 1 -18 -6 -18 -14z"/>
<path d="M3464 3052 c3 -5 0 -13 -6 -15 -9 -4 -10 -6 -1 -6 17 -1 25 16 12 25
-7 4 -9 3 -5 -4z"/>
<path d="M3660 3032 c0 -25 4 -29 30 -30 27 -1 30 3 30 29 0 26 -3 29 -30 29
-26 0 -30 -4 -30 -28z"/>
<path d="M487 3020 c7 -25 29 -26 35 -2 4 13 -1 18 -17 20 -18 1 -22 -2 -18
-18z"/>
<path d="M3362 3016 c7 -8 15 -12 17 -11 5 6 -10 25 -20 25 -5 0 -4 -6 3 -14z"/>
<path d="M3425 3021 c-3 -5 -2 -12 3 -15 5 -3 9 1 9 9 0 17 -3 19 -12 6z"/>
<path d="M0 2975 c0 -19 5 -35 10 -35 6 0 10 16 10 35 0 19 -4 35 -10 35 -5 0
-10 -16 -10 -35z"/>
<path d="M1347 2989 c3 -10 12 -20 20 -24 14 -5 14 -3 2 12 -8 9 -9 14 -2 10
6 -4 14 -3 17 2 3 5 -5 11 -18 13 -18 4 -22 1 -19 -13z"/>
<path d="M451 2976 c0 -13 3 -16 6 -7 5 11 7 11 14 0 6 -10 8 -8 7 7 -2 27
-28 27 -27 0z"/>
<path d="M613 2977 c0 -8 6 -14 12 -14 6 0 12 6 12 14 0 7 -6 13 -12 13 -6 0
-12 -6 -12 -13z"/>
<path d="M3380 2975 c0 -8 5 -15 11 -15 5 0 8 4 5 9 -4 5 0 12 6 14 8 3 6 6
-4 6 -10 1 -18 -6 -18 -14z"/>
<path d="M3450 2974 c0 -9 5 -14 12 -12 18 6 21 28 4 28 -9 0 -16 -7 -16 -16z"/>
<path d="M73 2955 c0 -8 4 -12 9 -9 4 3 8 9 8 15 0 5 -4 9 -8 9 -5 0 -9 -7 -9
-15z"/>
<path d="M671 2934 c0 -11 3 -14 6 -6 3 7 2 16 -1 19 -3 4 -6 -2 -5 -13z"/>
<path d="M1390 2940 c0 -6 7 -10 15 -10 8 0 15 2 15 4 0 2 -7 6 -15 10 -8 3
-15 1 -15 -4z"/>
<path d="M3893 2883 c2 -61 4 -66 25 -68 19 -1 22 3 20 32 -1 18 -7 33 -13 33
-5 0 -10 11 -10 24 0 15 5 22 13 19 6 -3 12 2 12 11 0 10 -9 16 -24 16 -24 0
-25 -2 -23 -67z"/>
<path d="M1353 2914 c-7 -19 2 -28 22 -21 19 8 19 23 0 31 -9 3 -18 -1 -22
-10z"/>
<path d="M1431 2904 c0 -11 3 -14 6 -6 3 7 2 16 -1 19 -3 4 -6 -2 -5 -13z"/>
<path d="M623 2903 c-17 -6 -17 -20 0 -20 8 0 14 6 14 14 0 7 -1 13 -1 12 -1
0 -7 -3 -13 -6z"/>
<path d="M1120 2849 c0 -5 5 -7 10 -4 6 3 10 2 10 -3 0 -6 -14 -15 -31 -21
-17 -6 -28 -15 -24 -21 8 -14 35 -13 35 1 0 7 7 17 17 24 9 7 13 17 9 23 -9
15 -26 16 -26 1z"/>
<path d="M612 2803 c2 -32 14 -43 44 -43 17 0 21 6 21 35 0 28 -4 35 -19 35
-12 0 -17 -4 -12 -12 6 -10 4 -10 -7 0 -21 19 -29 14 -27 -15z"/>
<path d="M1160 2805 c0 -8 2 -15 4 -15 2 0 11 -2 18 -5 9 -4 14 2 15 16 2 18
0 19 -14 7 -12 -9 -15 -10 -9 0 4 6 2 12 -3 12 -6 0 -11 -7 -11 -15z"/>
<path d="M1043 2762 c1 -13 7 -18 19 -14 22 5 19 26 -5 30 -10 2 -15 -3 -14
-16z"/>
<path d="M1121 2768 c-1 -9 -8 -21 -18 -26 -10 -6 -14 -16 -9 -27 6 -17 20
-13 22 6 1 5 2 14 3 19 0 6 8 10 16 10 8 0 15 8 15 18 0 13 -2 14 -9 3 -7 -11
-9 -11 -14 0 -4 10 -6 9 -6 -3z"/>
<path d="M3107 2768 c-9 -28 5 -49 31 -46 19 2 26 10 28 31 2 18 -2 27 -12 27
-9 0 -12 -5 -8 -12 6 -10 4 -10 -7 0 -7 6 -16 12 -20 12 -4 0 -9 -6 -12 -12z"/>
<path d="M3725 2770 c-3 -6 1 -13 10 -16 19 -8 30 0 20 15 -8 14 -22 14 -30 1z"/>
<path d="M658 2633 c7 -3 16 -2 19 1 4 3 -2 6 -13 5 -11 0 -14 -3 -6 -6z"/>
<path d="M970 2538 c0 -10 6 -18 14 -18 7 0 16 8 18 18 4 12 -1 18 -13 18 -12
0 -19 -7 -19 -18z"/>
<path d="M3703 2514 c0 -8 6 -14 14 -14 7 0 13 -9 13 -20 0 -11 -6 -20 -13
-20 -8 0 -14 -7 -14 -15 0 -8 4 -15 8 -15 4 0 9 7 13 15 8 23 36 18 36 -6 0
-15 -5 -19 -15 -15 -10 3 -15 -1 -15 -14 0 -17 8 -19 85 -19 l86 0 -3 67 -3
67 -67 3 c-61 3 -67 1 -70 -19 l-3 -21 -26 20 c-20 16 -26 17 -26 6z"/>
<path d="M771 2512 c-1 -14 26 -28 36 -18 4 3 1 12 -7 19 -10 9 -11 9 -6 0 4
-7 3 -13 -3 -13 -5 0 -12 6 -14 13 -4 9 -6 9 -6 -1z"/>
<path d="M937 2513 c-12 -12 -7 -30 8 -30 10 0 12 4 5 12 -5 7 -7 15 -3 18 3
4 4 7 1 7 -2 0 -8 -3 -11 -7z"/>
<path d="M1012 2498 c5 -15 28 -18 29 -3 0 6 -7 12 -17 13 -10 3 -15 -1 -12
-10z"/>
<path d="M3660 2470 c-6 -11 -15 -18 -19 -16 -4 3 -8 -1 -8 -8 0 -8 6 -12 14
-9 7 3 13 9 13 14 0 5 7 9 15 9 8 0 15 7 15 15 0 22 -17 18 -30 -5z"/>
<path d="M733 2465 c0 -8 9 -15 19 -15 10 0 18 7 18 15 0 8 -8 15 -18 15 -10
0 -19 -7 -19 -15z"/>
<path d="M813 2470 c2 -8 12 -16 23 -17 13 -2 15 -1 4 4 -8 3 -19 11 -23 17
-6 7 -7 6 -4 -4z"/>
<path d="M970 2465 c0 -6 7 -12 15 -12 8 0 15 6 15 12 0 6 -7 12 -15 12 -8 0
-15 -6 -15 -12z"/>
<path d="M790 2429 c0 -5 5 -7 10 -4 6 3 10 8 10 11 0 2 -4 4 -10 4 -5 0 -10
-5 -10 -11z"/>
<path d="M1007 2420 c-4 -15 0 -20 13 -20 18 0 34 23 23 34 -13 12 -31 5 -36
-14z"/>
<path d="M3670 2410 c-9 -17 -8 -20 9 -20 14 0 18 5 14 20 -3 11 -7 20 -9 20
-2 0 -8 -9 -14 -20z"/>
<path d="M930 2410 c0 -5 9 -8 20 -7 21 1 18 10 -5 13 -8 1 -15 -2 -15 -6z"/>
<path d="M2556 2341 c-3 -5 0 -11 7 -14 8 -3 14 1 14 9 0 16 -13 19 -21 5z"/>
<path d="M3465 2341 c17 -7 16 -9 -12 -15 -33 -8 -46 -33 -18 -33 8 0 15 6 15
14 0 7 9 13 20 13 11 0 20 7 20 15 0 9 -9 15 -22 14 -22 0 -22 -1 -3 -8z"/>
<path d="M3665 2340 c-3 -6 -3 -19 0 -31 8 -25 63 -24 56 1 -2 8 -4 21 -4 28
0 14 -43 16 -52 2z"/>
<path d="M3800 2321 c0 -26 3 -30 30 -29 27 1 30 4 28 30 -2 31 -8 34 -27 16
-11 -10 -13 -10 -7 0 4 7 1 12 -8 12 -11 0 -16 -9 -16 -29z"/>
<path d="M2500 2320 c0 -11 7 -23 15 -27 26 -9 30 6 7 27 l-22 21 0 -21z"/>
<path d="M2587 2313 c-12 -11 -8 -23 8 -23 8 0 15 7 15 15 0 16 -12 20 -23 8z"/>
<path d="M2867 2314 c-8 -8 1 -24 14 -24 5 0 9 7 9 15 0 15 -12 20 -23 9z"/>
<path d="M3353 2303 c0 -7 6 -13 14 -13 7 0 13 6 13 13 0 8 -6 14 -13 14 -8 0
-14 -6 -14 -14z"/>
<path d="M562 2270 c0 -19 2 -27 5 -17 2 9 2 25 0 35 -3 9 -5 1 -5 -18z"/>
<path d="M1041 2264 c0 -11 3 -14 6 -6 3 7 2 16 -1 19 -3 4 -6 -2 -5 -13z"/>
<path d="M2550 2265 c0 -8 7 -15 15 -15 8 0 15 7 15 15 0 8 -7 15 -15 15 -8 0
-15 -7 -15 -15z"/>
<path d="M2836 2273 c5 -5 12 -12 16 -18 4 -6 8 -2 8 8 0 9 -7 17 -17 17 -9 0
-12 -3 -7 -7z"/>
<path d="M3390 2265 c0 -8 7 -15 16 -15 14 0 14 3 4 15 -7 8 -14 15 -16 15 -2
0 -4 -7 -4 -15z"/>
<path d="M3450 2269 c0 -5 6 -7 13 -4 6 4 3 -1 -8 -10 -19 -16 -19 -16 8 -10
23 6 27 4 27 -14 0 -13 6 -21 18 -21 14 0 15 2 2 10 -10 6 -11 10 -2 10 6 0
12 5 12 11 0 5 -4 8 -9 4 -6 -3 -15 4 -21 15 -11 21 -40 28 -40 9z"/>
<path d="M1236 2253 c-6 -14 -5 -15 5 -6 7 7 10 15 7 18 -3 3 -9 -2 -12 -12z"/>
<path d="M1309 2253 c-13 -16 -12 -17 4 -4 9 7 17 15 17 17 0 8 -8 3 -21 -13z"/>
<path d="M3077 2243 c-12 -11 -8 -30 7 -30 8 0 11 8 8 19 -5 20 -6 21 -15 11z"/>
<path d="M3581 2238 c0 -10 -11 -20 -24 -23 -25 -7 -33 -35 -10 -35 7 0 13 -9
13 -20 0 -11 -7 -20 -15 -20 -8 0 -15 -6 -15 -14 0 -20 17 -29 26 -15 4 8 3 9
-4 5 -7 -4 -12 -3 -12 2 0 6 7 12 15 16 17 6 20 42 5 51 -13 8 -3 25 16 25 8
0 14 -7 14 -15 0 -8 9 -15 20 -15 11 0 20 7 20 15 0 8 -9 15 -19 15 -12 0 -21
8 -24 23 -3 14 -5 16 -6 5z"/>
<path d="M3905 2240 c-8 -13 4 -32 16 -25 12 8 12 35 0 35 -6 0 -13 -4 -16
-10z"/>
<path d="M3145 2229 c4 -6 -2 -13 -14 -16 -24 -6 -29 -30 -6 -30 8 0 12 4 10
8 -3 3 2 12 10 19 11 9 16 7 27 -9 14 -23 42 -29 36 -8 -3 6 -9 12 -14 12 -17
0 -34 16 -29 26 4 5 -1 9 -10 9 -9 0 -13 -5 -10 -11z"/>
<path d="M1306 2214 c-5 -14 -4 -15 9 -4 17 14 19 20 6 20 -5 0 -12 -7 -15
-16z"/>
<path d="M3040 2195 c0 -8 7 -15 15 -15 9 0 12 6 9 15 -4 8 -10 15 -15 15 -5
0 -9 -7 -9 -15z"/>
<path d="M2933 2155 c0 -17 14 -20 19 -5 2 6 9 1 15 -9 10 -16 10 -23 -3 -36
-9 -8 -20 -13 -24 -10 -5 3 -7 -4 -5 -15 3 -14 -1 -20 -16 -20 -21 0 -26 -15
-7 -26 7 -5 9 -2 4 7 -4 8 0 5 8 -5 21 -26 20 -37 -4 -43 -11 -3 -20 -12 -20
-19 0 -8 -9 -14 -20 -14 -11 0 -20 7 -20 15 0 8 -4 15 -9 15 -5 0 -11 -7 -15
-15 -3 -8 -14 -15 -24 -15 -15 0 -18 -6 -15 -24 3 -13 -1 -27 -8 -31 -8 -5
-10 -4 -5 4 5 7 2 10 -6 9 -7 -2 -14 7 -16 19 -2 15 3 23 18 28 13 4 19 12 16
21 -3 8 -1 14 5 14 6 0 7 6 3 13 -6 9 -5 9 7 0 13 -10 16 -10 16 2 0 8 -8 15
-18 15 -21 0 -19 31 2 39 15 6 25 32 12 30 -5 -1 -12 0 -18 1 -21 4 -148 0
-153 -5 -3 -3 3 -15 14 -27 10 -13 13 -18 5 -12 -16 15 -51 6 -51 -12 0 -8 9
-14 21 -14 11 0 17 4 14 10 -3 6 1 7 10 4 13 -5 13 -8 2 -18 -27 -21 -27 -43
-1 -55 14 -6 33 -11 42 -11 9 0 28 -16 42 -35 14 -19 31 -35 38 -35 6 0 12
-10 12 -22 0 -32 36 -88 56 -88 12 0 15 -7 12 -25 -4 -21 -3 -23 9 -14 10 9
17 9 24 2 13 -13 2 -56 -12 -48 -5 3 -6 -1 -3 -9 7 -19 15 -20 32 -6 6 6 9 7
7 3 -3 -4 5 -13 17 -20 13 -7 17 -12 11 -13 -19 0 -15 -66 7 -130 11 -30 19
-74 20 -97 l0 -43 120 0 120 0 0 -69 0 -69 -32 -5 c-18 -3 -50 -4 -70 -3 -21
1 -38 -1 -38 -4 0 -4 -14 -5 -30 -2 -25 3 -29 1 -24 -12 3 -9 10 -16 16 -16 5
0 9 -19 8 -42 -3 -63 -1 -68 15 -68 9 0 18 -7 21 -15 4 -8 10 -13 14 -10 8 5
25 -24 22 -37 -1 -5 5 -8 13 -8 8 0 15 7 15 15 0 8 -6 14 -12 12 -7 -1 -14 8
-16 21 -3 17 1 22 17 22 12 0 21 -6 21 -15 0 -18 16 -20 26 -3 5 7 3 8 -6 3
-9 -5 -11 -4 -6 3 4 7 16 12 28 12 16 0 19 5 15 21 -5 20 -3 21 36 16 23 -3
34 -3 25 0 -10 2 -18 11 -18 20 0 13 -2 14 -17 2 -9 -8 -14 -9 -10 -2 4 6 3
13 -3 15 -6 2 -12 12 -14 24 -3 16 1 20 17 20 12 -1 22 4 22 11 0 6 3 14 7 18
9 10 49 -5 43 -15 -3 -5 1 -12 8 -17 8 -4 17 -15 20 -23 4 -12 6 -12 6 2 1 9
-3 20 -9 23 -18 11 -11 35 10 35 18 0 20 7 20 69 0 39 5 73 10 76 10 6 145 8
333 6 58 -1 77 -4 77 -15 0 -7 9 -16 21 -19 12 -3 18 -10 14 -16 -3 -6 -2 -11
4 -11 17 0 22 18 6 24 -8 3 -15 12 -15 21 0 8 -7 15 -15 15 -8 0 -15 8 -16 18
0 9 -1 42 -2 72 l-2 55 68 3 c59 3 67 1 68 -15 0 -10 1 -43 1 -75 1 -43 4 -55
15 -51 10 4 13 37 13 145 0 120 -2 139 -15 134 -11 -4 -15 1 -15 19 0 13 -5
27 -10 30 -7 4 -7 11 -2 18 5 7 9 27 9 45 l0 32 -69 0 c-59 0 -68 -2 -68 -18
0 -10 6 -24 13 -31 6 -8 7 -11 2 -8 -7 4 -11 -34 -10 -110 0 -108 -1 -116 -20
-120 -25 -5 -105 -4 -114 1 -3 2 -6 35 -5 73 l1 68 -72 0 -71 0 6 -42 c4 -24
4 -43 1 -43 -3 0 1 -5 9 -10 10 -6 11 -10 3 -10 -7 0 -13 -9 -13 -20 0 -22 12
-20 -180 -22 -88 -1 -95 0 -98 19 -4 27 -38 20 -46 -10 -4 -17 -7 -18 -20 -8
-9 8 -13 17 -10 22 3 5 1 9 -4 9 -16 0 -22 -13 -12 -25 7 -8 3 -11 -13 -9 -12
1 -25 3 -29 3 -15 2 -8 41 7 41 8 0 15 7 15 15 0 8 -7 15 -15 15 -8 0 -15 9
-15 20 0 11 7 20 15 20 8 0 15 7 15 15 0 12 -16 15 -85 15 l-85 0 -1 53 c0 28
-1 64 -3 78 -1 24 0 25 36 19 31 -6 38 -4 38 9 0 10 3 12 8 6 4 -6 20 -12 36
-13 29 -2 29 -1 10 13 -11 9 -13 14 -5 13 11 -2 15 10 15 52 1 30 -2 63 -7 73
-4 9 -4 17 0 17 4 0 6 27 5 61 -5 73 5 120 19 98 7 -12 9 -11 9 4 0 24 -27 21
-33 -4 -3 -12 -10 -18 -16 -14 -7 3 -11 -2 -11 -14 0 -14 -6 -21 -20 -21 -18
0 -25 11 -21 33 1 5 -3 5 -9 2 -7 -4 -14 2 -17 14 -6 24 -40 29 -40 6z m-200
-107 c3 -11 10 -17 15 -14 5 3 12 -8 14 -25 3 -16 0 -33 -5 -36 -6 -3 -7 -1
-3 5 5 8 0 12 -13 12 -15 0 -21 7 -21 23 0 18 -2 19 -10 7 -5 -8 -10 -13 -10
-10 0 3 -4 19 -9 36 -8 29 -7 30 14 26 13 -2 26 -13 28 -24z m274 0 c6 -21 19
-24 27 -5 3 6 4 -5 3 -25 -1 -32 -3 -35 -19 -27 -10 5 -18 17 -18 26 0 11 -7
14 -25 11 -20 -4 -23 -3 -14 8 6 8 9 20 6 28 -4 10 0 12 15 8 11 -3 23 -13 25
-24z m39 -132 c8 -8 14 -21 14 -28 0 -10 -3 -9 -11 2 -8 12 -9 10 -7 -10 3
-22 -1 -25 -33 -28 -35 -3 -37 -2 -41 32 -3 29 0 36 17 39 38 8 46 7 61 -7z
m-172 -12 c3 -8 10 -12 16 -9 6 4 10 -5 10 -19 0 -19 -5 -26 -20 -26 -11 0
-20 7 -20 15 0 8 -7 15 -15 15 -8 0 -15 9 -15 20 0 24 35 28 44 4z m1004 -151
c-3 -33 -6 -37 -35 -40 -26 -3 -33 0 -34 14 0 10 -2 28 -5 41 -3 20 0 22 37
22 l40 0 -3 -37z m-33 -125 c6 -9 15 -17 20 -17 6 0 11 -9 13 -21 3 -15 -2
-20 -17 -20 -14 0 -21 6 -21 20 0 12 -5 17 -14 14 -13 -5 -29 29 -19 40 9 9
28 1 38 -16z m-806 -28 c5 0 11 -10 13 -23 4 -20 1 -23 -19 -19 -15 3 -23 11
-23 26 0 15 -3 17 -9 7 -7 -10 -12 -8 -25 10 -15 22 -15 24 1 30 11 4 25 -1
36 -12 10 -11 22 -19 26 -19z m115 -141 c-11 -18 -44 -10 -44 11 0 11 5 20 11
20 5 0 7 6 4 13 -4 6 3 1 14 -12 12 -12 18 -27 15 -32z m269 38 c4 3 7 -3 7
-15 0 -16 6 -22 21 -22 14 0 19 -5 17 -17 -4 -22 -38 -30 -38 -10 0 8 -9 17
-20 20 -14 4 -19 12 -18 31 2 17 6 22 14 16 6 -6 14 -7 17 -3z m317 -17 c5
-34 -1 -70 -11 -70 -5 0 -8 4 -5 8 3 4 -7 8 -22 8 -30 -1 -32 2 -32 43 0 25 5
30 28 33 31 4 39 0 42 -22z m-549 -18 c-4 -9 -7 -25 -6 -34 2 -13 -1 -15 -18
-9 -12 5 -29 6 -37 4 -8 -3 -1 5 15 16 17 11 31 25 31 31 3 20 4 21 14 15 6
-4 7 -13 1 -23z m-26 -268 c13 -5 14 -8 3 -15 -10 -7 -9 -9 5 -9 10 0 17 -8
17 -20 0 -13 -7 -20 -20 -20 -11 0 -20 7 -20 15 0 8 -7 15 -15 15 -8 0 -15 9
-15 20 0 20 15 25 45 14z"/>
<path d="M3017 2163 c-10 -9 -9 -23 1 -23 5 0 9 7 9 15 0 17 -1 18 -10 8z"/>
<path d="M3144 2158 c4 -20 26 -21 26 -1 0 14 -2 15 -9 4 -6 -9 -10 -10 -14
-2 -4 8 -5 8 -3 -1z"/>
<path d="M3492 2158 c6 -18 28 -21 28 -4 0 9 -7 16 -16 16 -9 0 -14 -5 -12
-12z"/>
<path d="M3900 2160 c0 -5 7 -10 15 -10 8 0 15 5 15 10 0 6 -7 10 -15 10 -8 0
-15 -4 -15 -10z"/>
<path d="M3112 2123 c4 -20 22 -21 26 -2 2 9 -4 16 -13 16 -9 0 -15 -7 -13
-14z"/>
<path d="M3183 2121 c-1 -14 3 -18 13 -14 17 6 19 33 1 33 -7 0 -13 -9 -14
-19z"/>
<path d="M3600 2126 c0 -8 7 -16 15 -20 8 -3 15 -12 15 -20 0 -8 6 -17 13 -19
10 -4 10 -6 0 -6 -9 -1 -13 -18 -13 -52 l0 -51 -70 4 c-73 3 -78 1 -57 -21 10
-11 10 -13 0 -7 -7 4 -13 2 -13 -3 0 -6 -7 -11 -15 -11 -21 0 -19 -21 3 -27
24 -6 27 -43 3 -43 -10 0 -18 -7 -18 -15 0 -12 3 -12 16 -2 12 10 13 9 6 -2
-6 -11 -4 -13 8 -8 9 3 18 3 21 -1 2 -4 29 -5 60 -4 l55 4 3 71 3 71 66 0 66
1 2 72 2 73 -46 0 c-34 0 -44 -3 -39 -12 6 -9 3 -9 -9 0 -9 8 -21 11 -27 7 -7
-4 -14 2 -17 14 -6 23 -33 29 -33 7z m130 -75 c0 -11 5 -23 10 -26 19 -12 -7
-30 -42 -29 -31 1 -33 3 -36 37 -3 36 -2 37 32 37 29 0 36 -4 36 -19z m25 0
c3 -5 2 -12 -3 -15 -5 -3 -9 1 -9 9 0 17 3 19 12 6z m-155 -162 c0 -38 -1 -39
-35 -39 -20 0 -35 5 -35 12 0 20 -31 47 -48 41 -14 -4 -15 -3 -2 6 11 7 19 6
33 -7 17 -15 18 -15 14 9 -5 23 -3 24 34 21 38 -4 39 -5 39 -43z"/>
<path d="M2577 2099 c7 -7 15 -10 18 -7 3 3 -2 9 -12 12 -14 6 -15 5 -6 -5z"/>
<path d="M103 2092 c-57 -2 -83 -7 -83 -15 0 -7 -4 -6 -10 3 -7 10 -9 -11 -8
-69 l3 -85 63 0 c35 -1 66 2 68 6 3 4 16 3 29 -2 14 -5 25 -6 25 -1 0 5 9 7
20 4 18 -5 20 -14 20 -87 l0 -82 58 3 c31 2 67 5 80 7 15 2 22 -2 23 -13 0
-10 2 -12 6 -3 2 6 16 12 29 12 19 0 29 9 42 38 9 20 30 54 45 74 17 21 26 42
21 49 -4 8 -3 9 4 5 14 -9 46 39 36 55 -4 8 -3 9 4 5 7 -4 20 -2 29 3 10 6 13
11 6 11 -22 0 -10 38 14 43 18 3 23 0 23 -15 0 -11 4 -17 10 -13 5 3 7 13 4
23 -5 13 -4 14 4 4 8 -11 17 -10 53 6 24 11 57 22 73 26 42 10 31 11 -71 8
-75 -3 -93 -6 -93 -18 0 -13 -2 -13 -16 1 -14 13 -41 16 -175 14 -88 0 -159
-5 -159 -10 0 -5 -5 -9 -11 -9 -5 0 -8 4 -5 9 3 5 -9 9 -28 9 -19 0 -38 2 -43
4 -4 1 -45 2 -90 0z m53 -24 c4 -7 3 -8 -4 -4 -7 4 -12 2 -12 -5 0 -7 11 -10
28 -7 26 4 27 2 24 -29 -2 -18 1 -39 6 -46 9 -10 1 -12 -36 -11 -26 1 -49 3
-52 3 -13 2 -2 69 15 89 23 26 22 25 31 10z m336 -153 c7 7 2 -27 -7 -47 -9
-21 -41 -24 -48 -4 -7 18 1 26 25 26 21 0 23 10 6 30 -11 12 -10 12 3 2 9 -6
18 -10 21 -7z"/>
<path d="M2870 2085 c0 -8 4 -15 8 -15 5 0 9 7 9 15 0 8 -4 15 -9 15 -4 0 -8
-7 -8 -15z"/>
<path d="M2551 2043 c0 -11 3 -13 6 -5 2 6 10 9 15 6 7 -4 8 -2 4 4 -11 18
-26 14 -25 -5z"/>
<path d="M3397 2053 c-4 -3 1 -16 10 -27 17 -20 17 -20 1 -7 -10 7 -18 9 -18
3 0 -11 23 -22 46 -22 9 0 14 11 14 30 0 25 -4 30 -23 30 -13 0 -27 -3 -30 -7z"/>
<path d="M2590 2021 c0 -10 19 -25 25 -20 1 2 -3 10 -11 17 -8 7 -14 8 -14 3z"/>
<path d="M2870 2021 c0 -6 4 -12 8 -15 5 -3 9 1 9 9 0 8 -4 15 -9 15 -4 0 -8
-4 -8 -9z"/>
<path d="M3914 1957 c-10 -26 0 -130 14 -135 9 -3 12 15 12 67 0 65 -13 100
-26 68z"/>
<path d="M3210 1953 c0 -3 7 -14 16 -24 12 -13 12 -19 3 -25 -7 -4 -10 -3 -5
4 3 6 3 13 -1 15 -5 3 -7 -25 -6 -61 2 -37 3 -89 3 -115 0 -29 4 -46 10 -42 6
3 10 1 10 -4 0 -6 -5 -11 -11 -11 -5 0 -7 -5 -4 -10 5 -8 12 -7 23 2 12 10 14
10 8 1 -5 -10 7 -13 49 -12 l56 2 -2 51 c-2 54 -14 80 -32 69 -6 -3 -7 -1 -3
6 6 9 11 9 22 0 11 -9 13 -1 9 55 -4 57 -2 68 13 74 9 4 18 13 20 20 1 9 -21
12 -88 12 -49 0 -90 -3 -90 -7z m115 -33 c-3 -5 -1 -10 4 -10 6 0 11 -5 11
-11 0 -5 -6 -7 -12 -3 -8 5 -7 0 2 -11 9 -11 10 -16 3 -11 -8 4 -13 1 -13 -8
0 -11 -10 -16 -34 -16 -37 0 -49 19 -35 58 7 17 16 22 44 22 22 0 34 -4 30
-10z m-78 -86 c-3 -3 -12 -4 -19 -1 -8 3 -5 6 6 6 11 1 17 -2 13 -5z m73 -20
c0 -8 -19 -13 -24 -6 -3 5 1 9 9 9 8 0 15 -2 15 -3z m19 -56 c13 -21 13 -22
-3 -8 -16 13 -18 12 -16 -5 4 -35 0 -43 -17 -40 -10 2 -25 4 -34 4 -12 1 -18
12 -21 36 -4 35 -4 35 37 35 31 0 43 -5 54 -22z m-102 -30 c-3 -7 -5 -2 -5 12
0 14 2 19 5 13 2 -7 2 -19 0 -25z"/>
<path d="M3426 1945 c4 -8 9 -15 13 -15 4 0 8 7 8 15 0 8 -6 15 -13 15 -8 0
-11 -6 -8 -15z"/>
<path d="M3117 1914 c-3 -4 -2 -14 3 -24 5 -10 6 -20 3 -24 -3 -3 1 -6 10 -6
8 0 18 6 20 13 4 8 6 7 6 -3 1 -13 3 -13 10 -1 19 30 -28 69 -52 45z m30 -10
c-3 -3 -12 -4 -19 -1 -8 3 -5 6 6 6 11 1 17 -2 13 -5z"/>
<path d="M3390 1916 c0 -2 7 -7 16 -10 8 -3 12 -2 9 4 -6 10 -25 14 -25 6z"/>
<path d="M3378 1892 c-12 -5 -14 -12 -9 -21 7 -11 11 -9 20 8 7 11 10 21 9 20
-2 0 -11 -3 -20 -7z"/>
<path d="M147 1882 c-9 -2 -15 -8 -12 -13 4 -5 2 -9 -4 -9 -5 0 -12 6 -14 13
-3 6 -6 -5 -6 -25 -1 -37 0 -38 34 -35 27 1 37 7 40 22 9 48 3 56 -38 47z m28
-11 c3 -5 2 -12 -3 -15 -5 -3 -9 1 -9 9 0 17 3 19 12 6z"/>
<path d="M4 1850 c2 -39 16 -51 16 -12 0 17 -4 33 -9 36 -4 3 -8 -8 -7 -24z"/>
<path d="M3128 1773 c-5 -26 -4 -63 1 -63 4 0 13 6 20 13 11 10 12 9 6 -3 -8
-13 -6 -13 7 -2 9 7 15 21 13 30 -2 9 -4 20 -4 25 -1 4 -6 7 -12 7 -5 0 -8 -4
-4 -9 3 -5 0 -13 -6 -17 -7 -4 -9 -3 -5 4 3 6 2 13 -4 17 -5 3 -11 3 -12 -2z"/>
<path d="M18 1762 c-19 -4 -26 -42 -8 -42 6 0 10 -18 10 -40 0 -22 -4 -40 -10
-40 -6 0 -10 -40 -10 -100 0 -98 1 -100 23 -100 13 0 32 -7 43 -16 10 -8 14
-13 7 -10 -16 8 -15 -123 1 -143 8 -11 8 -13 -1 -8 -12 8 -12 -10 0 -30 5 -7
4 -13 -1 -13 -5 0 -9 -12 -10 -27 0 -83 0 -83 -32 -83 l-30 0 0 -125 c0 -81 4
-125 11 -125 5 0 8 4 4 9 -3 5 -1 12 4 15 7 5 8 -22 1 -31 -2 -2 -3 -7 -4 -12
0 -5 -4 -13 -9 -17 -13 -13 -8 -41 8 -41 8 0 15 4 15 9 0 5 8 4 18 -1 15 -8
17 -4 14 40 -3 34 -8 47 -15 42 -9 -5 -9 -3 -1 8 7 8 12 57 12 118 1 109 7
126 47 117 10 -3 28 2 39 12 11 9 16 11 12 5 -5 -10 4 -13 33 -13 46 0 42 10
43 -120 0 -41 3 -79 6 -85 10 -16 11 -36 1 -29 -5 3 -9 -2 -9 -11 0 -9 4 -14
8 -11 4 2 9 -5 9 -17 2 -17 0 -19 -7 -7 -8 12 -10 9 -10 -10 0 -24 3 -25 53
-24 80 2 77 -1 75 52 -1 39 -2 41 -5 12 -4 -35 -5 -35 -43 -32 -38 4 -40 6
-40 38 0 19 0 37 0 41 0 10 74 12 86 2 16 -13 25 81 10 100 -8 11 -8 13 2 7 8
-5 11 -1 8 16 -2 13 0 28 4 33 11 13 21 243 11 249 -4 3 -4 39 1 81 14 135 16
205 4 205 -100 4 -173 4 -170 -1 2 -4 -22 -8 -54 -9 -81 -2 -82 -2 -82 -14 -1
-6 -9 0 -20 13 -11 12 -17 27 -14 32 3 5 -1 9 -8 9 -9 0 -10 2 -2 8 7 4 14 32
15 62 4 58 2 61 -43 52z m167 -204 c3 -3 7 -23 8 -44 l2 -39 -47 3 -48 4 0 38
c0 35 3 39 28 42 34 5 50 4 57 -4z m130 -167 c0 -7 -10 -17 -22 -22 -20 -7
-23 -5 -23 17 0 21 4 25 23 22 12 -2 22 -9 22 -17z m-175 -1 c0 -5 0 -13 1
-17 0 -4 -9 -10 -20 -15 -18 -6 -21 -3 -21 17 0 18 5 25 20 25 11 0 20 -4 20
-10z m224 -37 c4 -9 -1 -17 -14 -20 -11 -3 -18 -8 -15 -12 2 -4 -6 -7 -17 -6
-12 1 -24 8 -26 16 -3 11 -1 11 7 -1 9 -12 11 -10 11 12 0 38 41 47 54 11z
m-174 -10 c0 -18 -5 -23 -25 -23 -18 0 -25 5 -25 19 0 19 12 28 38 28 6 0 12
-11 12 -24z m-60 3 c0 -2 -6 -9 -14 -15 -11 -9 -16 -9 -22 0 -4 7 -3 9 4 5 6
-3 13 -2 17 4 6 10 15 14 15 6z m55 -147 c0 -37 -3 -44 -20 -45 -58 -2 -66 -5
-59 -16 4 -6 3 -9 -2 -6 -5 4 -7 29 -6 56 4 53 10 59 62 56 23 -1 25 -5 25
-45z m141 40 c3 -6 0 -16 -7 -21 -10 -7 -7 -8 12 -6 20 4 25 1 24 -15 -1 -11
-13 -25 -26 -33 -24 -12 -25 -11 -25 9 1 16 -5 22 -20 21 -14 0 -20 5 -18 13
2 7 6 20 9 28 5 17 41 20 51 4z m-236 -39 c0 -5 -5 -10 -11 -10 -5 0 -7 5 -4
10 3 6 8 10 11 10 2 0 4 -4 4 -10z m231 -122 c1 -7 1 -17 0 -22 -1 -5 7 -6 17
-4 15 4 18 1 14 -18 -3 -18 -11 -24 -29 -24 -18 0 -24 4 -19 15 4 10 -1 15
-14 15 -22 0 -28 35 -7 43 22 9 37 7 38 -5z"/>
<path d="M3158 1643 c7 -3 16 -2 19 1 4 3 -2 6 -13 5 -11 0 -14 -3 -6 -6z"/>
<path d="M3210 1640 c0 -5 -7 -10 -16 -10 -21 0 -13 -21 12 -31 18 -6 20 -4
16 22 -4 28 -12 40 -12 19z"/>
<path d="M3120 1615 c0 -8 4 -15 9 -15 5 0 11 7 15 15 3 9 0 15 -9 15 -8 0
-15 -7 -15 -15z"/>
<path d="M3151 1588 c-1 -10 6 -18 14 -18 8 0 15 8 15 18 0 13 -2 14 -9 3 -7
-11 -9 -11 -14 0 -4 10 -6 9 -6 -3z"/>
<path d="M3819 1498 c-1 -2 -2 -16 -3 -31 -1 -19 2 -26 11 -23 7 3 13 1 13 -4
0 -6 7 -10 15 -10 10 0 15 11 15 35 0 31 -3 35 -25 35 -14 0 -26 -1 -26 -2z
m19 -33 c-3 -3 -9 2 -12 12 -6 14 -5 15 5 6 7 -7 10 -15 7 -18z"/>
<path d="M3850 1375 c0 -8 7 -15 15 -15 8 0 15 7 15 15 0 8 -7 15 -15 15 -8 0
-15 -7 -15 -15z"/>
<path d="M2 1350 c0 -19 2 -27 5 -17 2 9 2 25 0 35 -3 9 -5 1 -5 -18z"/>
<path d="M3886 1351 c-4 -5 -2 -12 3 -15 5 -4 12 -2 15 3 4 5 2 12 -3 15 -5 4
-12 2 -15 -3z"/>
<path d="M3124 1316 c-8 -33 1 -44 31 -38 20 3 25 10 25 33 0 24 -4 29 -25 29
-18 0 -26 -7 -31 -24z"/>
<path d="M3790 1310 c13 -9 13 -10 0 -11 -8 0 -3 -5 12 -10 17 -7 25 -15 21
-25 -3 -8 1 -14 11 -14 9 0 16 -6 16 -13 0 -8 7 -14 15 -14 8 0 12 4 10 8 -3
3 2 12 10 19 8 7 12 16 9 21 -3 5 2 6 10 3 9 -3 16 -3 16 0 0 4 -12 11 -26 16
-14 6 -22 14 -19 20 3 5 2 10 -3 10 -6 0 -12 -7 -16 -15 -3 -9 0 -15 9 -15 15
0 21 -31 8 -44 -7 -7 -63 49 -63 65 0 5 -8 9 -17 9 -15 0 -16 -2 -3 -10z"/>
<path d="M3917 1239 c4 -13 -2 -22 -18 -28 -13 -5 -18 -10 -10 -10 11 -1 9 -5
-5 -15 -17 -13 -21 -12 -40 5 -16 15 -21 16 -21 5 0 -8 4 -13 8 -10 4 2 13 -5
19 -16 12 -23 30 -27 30 -6 0 8 9 18 20 21 11 4 18 11 15 16 -4 5 0 12 8 15
17 6 18 31 1 38 -7 3 -10 -2 -7 -15z"/>
<path d="M3640 1233 c0 -8 9 -17 20 -20 11 -3 20 -12 20 -20 0 -11 3 -11 14
-1 12 11 10 14 -10 21 -18 7 -22 12 -15 21 7 8 4 12 -10 13 -11 1 -19 -5 -19
-14z"/>
<path d="M3712 1233 c5 -25 28 -28 28 -4 0 12 -6 21 -16 21 -9 0 -14 -7 -12
-17z"/>
<path d="M3783 1235 c0 -8 6 -15 12 -15 6 0 12 7 12 15 0 8 -6 15 -12 15 -6 0
-12 -7 -12 -15z"/>
<path d="M3750 1195 c0 -8 7 -15 15 -15 8 0 15 -6 15 -13 0 -8 7 -14 15 -14 8
0 15 7 15 14 0 8 -5 11 -11 8 -6 -4 -13 2 -16 14 -6 24 -33 29 -33 6z"/>
<path d="M3263 1186 c0 -7 6 -13 14 -13 7 0 13 4 13 8 0 4 -6 9 -13 12 -8 3
-14 0 -14 -7z"/>
<path d="M3543 1184 c-9 -24 4 -41 31 -41 21 0 26 4 26 26 0 21 -5 26 -26 27
-14 1 -28 -4 -31 -12z"/>
<path d="M3920 1171 c0 -6 5 -13 10 -16 6 -3 10 1 10 9 0 9 -4 16 -10 16 -5 0
-10 -4 -10 -9z"/>
<path d="M3640 1159 c0 -6 9 -13 19 -16 21 -5 35 -29 23 -37 -5 -3 -43 -6 -86
-8 -58 -2 -79 1 -86 12 -9 14 -4 -123 5 -148 5 -15 70 -12 95 3 9 5 11 4 6 -3
-4 -7 -2 -12 3 -12 10 0 15 14 12 33 -1 5 3 6 9 2 5 -3 10 -1 10 4 0 6 7 11
16 11 8 0 13 3 10 8 -2 4 1 15 8 24 12 16 14 16 26 -7 14 -27 25 -31 35 -14 4
6 -2 13 -14 16 -12 3 -21 12 -21 19 0 8 -7 14 -15 14 -8 0 -15 -7 -15 -15 0
-8 -4 -15 -10 -15 -5 0 -13 -1 -16 -2 -4 -2 -10 7 -15 19 -5 13 -5 22 -1 22
24 -4 42 3 42 17 0 10 7 14 18 12 9 -2 16 -10 15 -16 -2 -7 4 -12 12 -12 8 0
15 7 15 15 0 8 -5 14 -12 13 -6 -2 -14 7 -17 20 -3 13 -9 23 -13 23 -4 1 -18
3 -30 7 -21 5 -21 6 -2 13 18 7 17 8 -3 8 -13 1 -23 -4 -23 -10z"/>
<path d="M3720 1154 c0 -8 5 -12 10 -9 6 4 8 11 5 16 -9 14 -15 11 -15 -7z"/>
<path d="M3300 1145 c0 -8 2 -15 4 -15 2 0 6 7 10 15 3 8 1 15 -4 15 -6 0 -10
-7 -10 -15z"/>
<path d="M3750 1124 c0 -6 6 -14 14 -17 7 -3 16 -17 18 -31 4 -20 2 -24 -7
-16 -9 8 -15 8 -20 0 -4 -6 1 -17 11 -24 18 -14 13 -53 -6 -41 -5 3 -10 -3
-10 -14 0 -14 -6 -21 -20 -21 -13 0 -20 7 -20 20 0 26 -20 26 -27 -1 -4 -13
-12 -19 -23 -16 -13 3 -16 -1 -12 -19 2 -13 7 -23 11 -22 3 1 14 -2 24 -7 15
-6 16 -10 5 -16 -10 -7 -9 -9 5 -9 9 0 17 7 17 15 0 8 -6 15 -14 15 -19 0 -27
13 -17 29 5 8 17 11 30 6 12 -3 19 -11 16 -16 -4 -5 -1 -9 4 -9 6 0 11 4 11 9
0 5 15 17 32 26 18 9 27 10 20 3 -18 -18 -14 -38 8 -38 11 0 20 6 20 14 0 17
38 28 47 14 3 -7 1 -8 -5 -4 -7 4 -12 1 -12 -9 0 -8 -7 -18 -15 -21 -8 -4 -15
-14 -15 -23 0 -9 3 -12 8 -5 4 6 13 4 24 -7 12 -13 13 -19 5 -23 -7 -2 -4 -5
6 -5 9 -1 17 6 17 14 0 8 -6 15 -14 15 -19 0 -27 26 -12 39 7 6 16 8 19 4 4
-3 7 1 7 9 0 19 27 32 35 17 4 -5 3 -19 0 -30 -6 -17 -9 -19 -16 -8 -7 11 -9
9 -9 -6 0 -14 7 -20 25 -21 l25 -2 0 109 c0 97 -2 110 -16 107 -10 -2 -19 4
-21 12 -4 13 -3 13 6 0 9 -13 11 -13 11 3 0 11 -8 17 -21 17 -16 0 -20 -5 -16
-20 3 -11 0 -23 -5 -27 -7 -3 -8 -1 -4 5 4 7 1 12 -8 12 -9 0 -16 7 -16 15 0
8 -7 15 -15 15 -8 0 -15 -6 -15 -14 0 -8 -6 -16 -12 -18 -20 -7 -37 2 -32 16
3 7 -2 13 -11 13 -8 0 -15 -6 -15 -13z m103 -64 c-4 -17 0 -20 23 -20 20 0 25
-3 16 -9 -8 -4 -13 -11 -13 -15 3 -20 -1 -25 -14 -20 -8 4 -15 11 -15 18 0 6
-10 16 -21 21 -28 13 -26 28 3 37 13 3 24 6 25 7 0 1 -1 -8 -4 -19z"/>
<path d="M3333 1106 c-1 -12 1 -15 4 -8 3 6 9 10 14 6 5 -3 9 1 9 9 0 22 -26
16 -27 -7z"/>
<path d="M3270 1099 c0 -5 5 -7 10 -4 6 3 10 8 10 11 0 2 -4 4 -10 4 -5 0 -10
-5 -10 -11z"/>
<path d="M116 1048 c-9 -35 -8 -37 17 -31 18 4 19 3 7 -7 -12 -9 -10 -10 10
-8 20 2 26 9 28 36 3 30 1 32 -26 32 -22 0 -31 -6 -36 -22z"/>
<path d="M3410 1026 c0 -29 3 -33 27 -32 14 1 28 7 31 15 3 9 0 11 -8 6 -10
-6 -11 -4 -4 6 4 8 9 20 10 27 2 11 0 11 -14 0 -12 -10 -14 -10 -8 0 5 8 0 12
-13 12 -17 0 -21 -6 -21 -34z"/>
<path d="M3062 1039 c2 -6 8 -10 13 -10 5 0 11 4 13 10 2 6 -4 11 -13 11 -9 0
-15 -5 -13 -11z"/>
<path d="M3193 1035 c0 -6 6 -12 14 -12 7 0 13 6 13 12 0 6 -6 12 -13 12 -8 0
-14 -6 -14 -12z"/>
<path d="M3095 1001 c3 -6 -3 -15 -12 -21 -15 -9 -15 -10 6 -4 22 6 40 -7 41
-28 0 -13 -38 -9 -44 5 -6 13 -3 -8 14 -95 l11 -58 52 0 c29 0 61 -2 72 -4 11
-2 15 -1 9 1 -7 2 -14 14 -16 27 -4 19 -1 22 14 18 12 -3 18 1 18 14 0 9 -3
14 -7 11 -10 -11 -32 13 -26 29 3 8 12 14 20 14 13 0 13 2 2 17 -12 14 -12 16
0 8 10 -6 12 -4 7 4 -5 7 -15 10 -23 7 -8 -3 -11 -1 -8 4 3 6 -1 10 -9 10 -8
0 -17 -4 -20 -9 -3 -4 -17 -6 -31 -4 -13 3 -22 9 -20 14 3 4 -4 13 -15 19 -11
6 -18 15 -15 21 4 5 -1 9 -10 9 -9 0 -14 -4 -10 -9z m65 -111 c0 -13 -7 -20
-20 -20 -13 0 -20 7 -20 20 0 13 7 20 20 20 13 0 20 -7 20 -20z m34 -51 c-3
-5 -12 -9 -20 -9 -14 0 -20 31 -7 44 9 9 34 -24 27 -35z"/>
<path d="M3162 1001 c2 -7 7 -12 11 -12 12 1 9 15 -3 20 -7 2 -11 -2 -8 -8z"/>
<path d="M3208 983 c-10 -2 -18 -8 -18 -13 0 -4 9 -6 20 -3 11 3 20 9 20 14 0
5 -1 8 -2 8 -2 -1 -11 -3 -20 -6z"/>
<path d="M3304 939 c-4 -8 -3 -9 4 -5 7 4 12 1 12 -9 0 -8 7 -18 16 -22 13 -5
13 -7 2 -14 -9 -6 -7 -9 9 -9 16 0 21 4 17 15 -4 8 -12 15 -20 15 -8 0 -14 6
-14 14 0 20 -17 29 -26 15z"/>
<path d="M3288 909 c-23 -13 -23 -29 -1 -29 9 0 13 3 10 7 -4 3 -2 12 4 20 13
15 10 16 -13 2z"/>
<path d="M3750 905 c0 -8 7 -15 15 -15 8 0 15 -6 15 -14 0 -8 8 -14 19 -13 24
1 16 23 -11 30 -11 3 -17 10 -13 16 3 6 -1 11 -9 11 -9 0 -16 -7 -16 -15z"/>
<path d="M3644 869 c0 -11 7 -19 17 -19 9 0 20 -7 23 -16 3 -8 10 -12 16 -9
16 10 12 22 -10 28 -11 3 -19 11 -18 17 2 7 -4 14 -12 15 -10 2 -16 -5 -16
-16z"/>
<path d="M3724 873 c2 -10 6 -17 10 -16 15 3 16 11 2 22 -12 10 -14 9 -12 -6z"/>
<path d="M3920 870 c0 -5 -7 -10 -15 -10 -8 0 -15 -7 -15 -16 0 -9 -10 -24
-22 -33 -17 -14 -18 -18 -5 -18 9 0 18 6 21 14 10 24 36 15 36 -13 0 -19 -4
-25 -15 -20 -9 3 -15 0 -15 -9 0 -8 6 -14 12 -12 7 1 14 -8 16 -20 2 -16 -2
-23 -12 -23 -9 0 -16 -7 -16 -15 0 -8 9 -15 19 -15 12 0 21 -9 24 -22 3 -13 5
32 5 100 0 67 -4 122 -9 122 -5 0 -9 -4 -9 -10z"/>
<path d="M3304 856 c-3 -9 -12 -16 -20 -16 -23 0 -16 -37 7 -43 36 -10 79 3
79 24 0 11 -7 17 -19 16 -10 0 -18 -8 -17 -16 1 -8 -7 -17 -16 -19 -23 -5 -24
26 -1 43 11 8 13 14 4 19 -6 4 -14 0 -17 -8z"/>
<path d="M3823 841 c-6 -24 -43 -29 -43 -6 0 8 -7 15 -15 15 -22 0 -18 -27 5
-33 12 -3 18 -11 15 -19 -4 -9 0 -15 10 -15 9 0 21 11 26 24 5 13 13 21 19 18
5 -3 10 1 10 9 0 24 -21 30 -27 7z"/>
<path d="M3639 816 c-2 -2 -62 -6 -134 -8 -125 -3 -130 -4 -133 -26 -2 -12 -9
-22 -16 -22 -7 0 -13 -7 -13 -15 0 -8 8 -15 18 -15 14 0 17 -5 11 -19 -4 -11
-11 -19 -16 -18 -5 1 -12 -8 -17 -20 -9 -24 -39 -22 -39 3 0 8 -7 14 -15 14
-8 0 -15 -7 -15 -15 0 -9 -10 -15 -27 -16 -16 -1 -32 -2 -38 -4 -5 -1 -22 -3
-37 -3 -40 -3 -37 -32 2 -32 28 0 30 -3 30 -36 0 -27 -5 -37 -20 -41 -11 -3
-20 -11 -20 -19 0 -10 25 -13 108 -13 l107 1 -3 74 -4 74 69 0 c72 1 180 9
201 15 6 3 12 14 12 25 0 11 -6 20 -12 20 -9 0 -9 3 -2 8 5 4 10 26 10 50 0
44 0 45 -7 38z m-48 -53 c7 -10 10 -15 5 -11 -5 4 -15 0 -24 -8 -18 -18 -38
-4 -29 20 8 21 31 20 48 -1z m25 -40 c-4 -26 -36 -29 -36 -4 0 14 6 21 19 21
13 0 18 -6 17 -17z m-312 -118 c3 -8 14 -15 25 -15 14 0 18 -5 14 -20 -6 -22
-43 -28 -43 -6 0 7 -9 16 -20 19 -11 3 -20 12 -20 21 0 20 36 21 44 1z m-21
-50 c-3 -9 -8 -14 -10 -11 -3 3 -2 9 2 15 9 16 15 13 8 -4z"/>
<path d="M3230 770 c0 -5 7 -7 15 -4 8 4 15 8 15 10 0 2 -7 4 -15 4 -8 0 -15
-4 -15 -10z"/>
<path d="M3691 766 c-19 -23 -6 -50 26 -53 28 -4 30 -2 29 29 -1 27 -6 33 -24
34 -12 1 -26 -4 -31 -10z"/>
<path d="M3822 769 c2 -6 8 -10 13 -10 5 0 11 4 13 10 2 6 -4 11 -13 11 -9 0
-15 -5 -13 -11z"/>
<path d="M3137 754 c-4 -4 -7 -18 -7 -31 0 -26 21 -39 46 -29 14 5 14 9 3 23
-12 14 -12 15 -1 9 10 -6 13 -3 10 10 -3 19 -38 31 -51 18z"/>
<path d="M3863 735 c0 -8 4 -15 9 -15 4 0 8 4 8 9 0 6 -4 12 -8 15 -5 3 -9 -1
-9 -9z"/>
<path d="M3790 730 c0 -5 7 -7 15 -4 8 4 15 8 15 10 0 2 -7 4 -15 4 -8 0 -15
-4 -15 -10z"/>
<path d="M3237 723 c-9 -2 -15 -9 -12 -14 10 -15 32 -10 32 6 0 8 -1 14 -1 14
-1 -1 -9 -3 -19 -6z"/>
<path d="M3307 724 c-8 -8 1 -24 14 -24 5 0 9 7 9 15 0 15 -12 20 -23 9z"/>
<path d="M3836 695 c4 -8 8 -15 10 -15 2 0 4 7 4 15 0 8 -4 15 -10 15 -5 0 -7
-7 -4 -15z"/>
<path d="M3662 659 c7 -5 8 -9 2 -9 -6 0 -12 -26 -13 -63 l-2 -64 71 5 c76 4
75 5 70 -57 -1 -17 2 -21 12 -15 10 6 9 3 -1 -10 -13 -15 -13 -19 0 -27 10 -6
10 -9 2 -9 -7 0 -12 -6 -10 -12 1 -9 -19 -15 -68 -18 -53 -4 -70 -9 -70 -20 0
-8 -8 -16 -17 -18 -16 -3 -23 8 -19 30 0 4 -6 5 -14 2 -20 -8 -19 -34 0 -34 8
0 15 -7 15 -15 0 -8 3 -14 8 -14 22 4 32 -3 32 -21 0 -14 -7 -20 -21 -20 -17
0 -20 -5 -17 -37 2 -25 8 -38 18 -38 14 0 34 -62 21 -68 -3 -2 -37 -4 -76 -5
-38 -1 -115 -5 -170 -9 -102 -7 -109 -7 -158 -5 l-28 2 6 71 c3 39 2 68 -2 66
-5 -3 -6 23 -3 57 l5 61 -31 -3 c-30 -4 -32 -6 -27 -35 3 -18 8 -34 12 -37 4
-3 10 -15 13 -27 4 -17 2 -20 -10 -16 -12 5 -14 2 -7 -13 4 -10 10 -67 13
-126 l5 -108 368 0 369 0 -1 183 c0 227 -11 293 -39 247 -11 -17 -60 -4 -60
15 0 8 -4 15 -10 15 -16 0 -11 30 6 37 16 6 37 -15 28 -29 -3 -4 3 -8 13 -8
11 0 24 -5 31 -12 15 -15 25 9 20 49 -3 27 -5 28 -70 31 -66 3 -71 6 -67 38 0
4 -5 11 -13 15 -10 7 -10 9 0 9 7 0 12 15 12 40 l0 39 -71 -1 c-41 -1 -65 -5
-57 -9z m93 -59 c0 -33 -2 -35 -36 -38 -36 -3 -37 -2 -41 36 -2 31 0 38 11 34
8 -3 12 -1 8 5 -4 7 4 8 25 4 29 -6 32 -10 33 -41z m125 -240 c1 31 20 -14 20
-47 0 -27 -4 -32 -31 -38 -37 -8 -44 -2 -44 38 -1 35 33 66 47 44 5 -8 8 -7 8
3z m23 -185 c5 -28 -12 -42 -48 -41 -15 1 -21 9 -23 34 -3 30 -2 32 31 32 29
0 35 -4 40 -25z"/>
<path d="M23 613 c-22 -4 -23 -9 -23 -104 0 -54 3 -99 8 -99 4 0 7 -22 7 -49
1 -27 -2 -48 -6 -46 -3 3 -7 -20 -8 -50 -1 -29 3 -56 9 -60 6 -3 8 -10 6 -14
-3 -4 -8 -22 -11 -40 -5 -31 -4 -32 22 -29 28 3 28 2 31 -59 3 -55 6 -63 22
-63 17 0 20 7 20 48 l0 47 40 2 c22 1 40 -3 40 -8 0 -6 6 -7 12 -3 10 6 10 5
1 -8 -14 -17 -6 -32 12 -20 6 4 3 0 -7 -10 -10 -9 -18 -21 -18 -26 0 -6 -8
-13 -17 -15 -10 -3 1 -5 25 -6 24 0 41 3 38 8 -3 4 4 17 16 27 12 11 18 14 15
8 -4 -7 0 -15 9 -18 8 -3 12 -10 9 -16 -3 -5 2 -10 12 -10 10 0 23 10 28 23 6
12 16 21 23 19 7 -1 12 5 12 13 0 8 -3 14 -7 14 -22 -4 -32 3 -35 24 l-3 22
-14 -24 c-7 -13 -9 -21 -4 -18 4 3 16 -1 26 -8 17 -12 17 -14 -4 -29 -24 -17
-39 -13 -39 10 0 8 -9 14 -20 14 -28 0 -26 38 3 50 12 5 16 9 9 9 -10 1 -9 5
3 17 11 12 25 14 50 10 22 -4 35 -3 35 4 0 5 12 10 26 10 25 0 26 2 21 38 -4
20 -9 67 -13 105 -7 71 -8 72 -48 57 -23 -8 -26 -7 -26 10 0 13 -7 20 -20 20
-15 0 -20 7 -20 25 0 20 5 25 25 25 19 0 25 -5 23 -17 -2 -12 4 -19 20 -21 12
-2 20 -8 17 -13 -4 -5 -1 -9 4 -9 13 0 15 69 3 87 -6 9 -26 11 -70 7 -63 -5
-69 -2 -64 37 1 4 -7 5 -18 2 -24 -6 -22 -43 2 -43 10 0 18 -5 18 -11 0 -5 5
-7 11 -4 6 4 5 -2 -2 -13 -11 -17 -10 -24 2 -38 11 -14 11 -16 0 -10 -10 7
-12 0 -8 -33 4 -38 2 -43 -20 -52 -13 -5 -38 -9 -54 -9 -20 0 -28 -4 -23 -12
5 -7 3 -8 -6 -3 -8 5 -28 9 -45 9 -28 1 -30 3 -27 34 2 18 -2 40 -10 49 -9 12
-9 15 0 9 9 -5 12 5 12 38 0 25 -4 46 -10 46 -5 0 -2 9 7 19 12 15 21 17 34
10 11 -5 16 -16 13 -24 -4 -8 -1 -15 5 -15 6 0 11 6 11 13 0 8 4 7 10 -3 8
-12 10 -10 10 9 0 17 -4 22 -15 17 -9 -3 -18 1 -21 9 -4 8 -11 12 -18 8 -6 -3
-3 3 7 14 17 20 17 20 -8 16 -15 -3 -22 -10 -18 -17 3 -6 2 -8 -2 -3 -18 16
-12 49 12 58 12 5 23 15 23 24 0 15 -26 18 -77 8z m27 -283 c0 -5 -2 -10 -4
-10 -3 0 -8 5 -11 10 -3 6 -1 10 4 10 6 0 11 -4 11 -10z m305 -71 c4 -10 3
-23 0 -29 -3 -5 0 -10 7 -10 19 0 -24 -28 -47 -30 -37 -4 -43 0 -47 36 -3 26
1 39 14 48 24 17 66 9 73 -15z m5 -73 c0 -2 -8 -10 -17 -17 -16 -13 -17 -12
-4 4 13 16 21 21 21 13z m-45 -16 c-3 -5 -12 -10 -18 -10 -7 0 -6 4 3 10 19
12 23 12 15 0z"/>
<path d="M150 605 c0 -8 7 -15 15 -15 8 0 15 7 15 15 0 8 -7 15 -15 15 -8 0
-15 -7 -15 -15z"/>
<path d="M3931 584 c0 -11 3 -14 6 -6 3 7 2 16 -1 19 -3 4 -6 -2 -5 -13z"/>
<path d="M187 575 c-4 -8 -3 -16 1 -19 4 -3 9 4 9 15 2 23 -3 25 -10 4z"/>
<path d="M210 575 c0 -8 2 -15 4 -15 2 0 6 7 10 15 3 8 1 15 -4 15 -6 0 -10
-7 -10 -15z"/>
<path d="M100 570 c0 -5 7 -6 17 -3 11 4 14 3 9 -5 -4 -7 -2 -12 3 -12 6 0 11
7 11 15 0 8 -9 15 -20 15 -11 0 -20 -4 -20 -10z"/>
<path d="M172 530 c0 -14 2 -19 5 -12 2 6 2 18 0 25 -3 6 -5 1 -5 -13z"/>
<path d="M3703 483 c-7 -2 -13 -18 -13 -34 0 -26 3 -29 31 -29 28 0 30 2 27
32 -3 32 -18 43 -45 31z"/>
<path d="M3160 440 c0 -20 5 -30 15 -30 16 0 19 17 9 44 -10 26 -24 18 -24
-14z"/>
<path d="M122 414 c-6 -3 -10 -10 -6 -15 3 -5 0 -9 -5 -9 -6 0 -11 -12 -11
-26 0 -24 2 -25 33 -19 41 9 49 17 45 46 -3 24 -28 34 -56 23z"/>
<path d="M3508 373 c6 -2 12 -11 12 -19 0 -8 7 -14 15 -14 12 0 12 3 -2 20
-10 11 -22 20 -28 19 -5 0 -4 -3 3 -6z"/>
<path d="M3561 331 c-10 -6 -10 -10 -1 -16 13 -8 24 -1 19 14 -3 6 -10 7 -18
2z"/>
<path d="M3416 302 c1 -15 2 -30 3 -34 1 -3 9 -5 19 -3 9 2 22 4 28 4 6 1 11
14 12 30 1 26 -2 29 -32 29 -29 0 -33 -3 -30 -26z"/>
<path d="M3523 285 c0 -8 6 -15 12 -15 6 0 12 7 12 15 0 8 -6 15 -12 15 -6 0
-12 -7 -12 -15z"/>
<path d="M3600 285 c-8 -9 -8 -15 -2 -15 12 0 26 19 19 26 -2 2 -10 -2 -17
-11z"/>
<path d="M3563 250 c-5 -17 -14 -20 -62 -21 -31 0 -65 -4 -76 -9 -12 -5 7 -6
49 -4 56 4 72 2 90 -13 11 -10 17 -14 13 -8 -4 5 3 15 15 23 22 13 22 13 1 9
-18 -4 -21 -1 -17 19 5 29 -6 32 -13 4z"/>
<path d="M3305 219 l-70 -6 83 0 c45 0 82 1 82 2 0 8 -33 9 -95 4z"/>
<path d="M318 128 c5 -5 16 -8 23 -6 8 3 3 7 -10 11 -17 4 -21 3 -13 -5z"/>
<path d="M383 105 c-3 -9 -3 -18 -1 -21 3 -3 8 4 11 16 6 23 -1 27 -10 5z"/>
<path d="M357 103 c-4 -3 -7 -11 -7 -17 0 -6 5 -5 12 2 6 6 9 14 7 17 -3 3 -9
2 -12 -2z"/>
<path d="M358 29 c-10 -7 -10 -11 1 -21 12 -11 12 -10 6 2 -7 13 -6 13 7 2 13
-10 16 -9 20 6 6 20 -11 25 -34 11z"/>
<path d="M118 3 c7 -3 16 -2 19 1 4 3 -2 6 -13 5 -11 0 -14 -3 -6 -6z"/>
</g>
</svg>
